<svg preserveAspectRatio="none" width="100%" height="100%" overflow="visible" style="display: block;" viewBox="0 0 17.4159 13.6936" fill="none" xmlns="http://www.w3.org/2000/svg">
<path id="Arrow 3" d="M0.929771 5.91703C0.416273 5.91703 0 6.3333 0 6.8468C0 7.3603 0.416273 7.77657 0.929771 7.77657V6.8468V5.91703ZM17.1436 7.50424C17.5067 7.14115 17.5067 6.55245 17.1436 6.18935L11.2265 0.272324C10.8634 -0.0907745 10.2747 -0.0907745 9.91165 0.272324C9.54855 0.635422 9.54855 1.22412 9.91165 1.58722L15.1712 6.8468L9.91165 12.1064C9.54855 12.4695 9.54855 13.0582 9.91165 13.4213C10.2747 13.7844 10.8634 13.7844 11.2265 13.4213L17.1436 7.50424ZM0.929771 6.8468V7.77657H16.4861V6.8468V5.91703H0.929771V6.8468Z" fill="var(--stroke-0, white)"/>
</svg>
