<svg preserveAspectRatio="none" width="100%" height="100%" overflow="visible" style="display: block;" viewBox="0 0 41.6542 78.7643" fill="none" xmlns="http://www.w3.org/2000/svg">
<g id="Objects" opacity="0.5" clip-path="url(#clip0_0_189)">
<path id="Vector" d="M38.3575 67.2711C38.1773 67.2294 38.0227 67.2555 37.894 67.3232C37.7395 62.7072 36.5496 58.1067 34.5202 53.9961C32.4548 49.8073 29.1274 45.186 24.3423 44.2274C23.9766 42.2476 24.1414 40.2209 24.8625 38.3557C25.9803 38.1734 27.0568 37.8973 28.0663 37.5378C32.5217 35.9487 35.1074 32.2653 36.3178 27.7795C37.6416 22.8613 38.064 17.1616 37.2913 11.9099C41.4841 10.9253 40.6651 5.26723 37.8631 3.05299C35.7255 1.35975 32.9286 1.01068 30.3172 0.692873C26.9229 0.276075 23.5182 0.0572566 20.1135 0.0259968C14.5971 -0.020893 7.43751 -0.291811 2.56489 2.80291C1.09693 3.7355 -0.319534 5.34017 0.0616221 7.23139C0.38612 8.83606 1.84379 10.05 3.44567 9.57587C3.86804 9.45083 3.80108 8.76833 3.33751 8.78396C1.48323 8.83085 0.911498 6.77291 1.72532 5.42874C2.24039 4.57951 3.11602 4.01683 3.9762 3.5792C5.87683 2.61535 8.06076 2.1725 10.1571 1.90159C13.8193 1.42748 17.5639 1.34933 21.2467 1.42748C25.1149 1.50563 29.148 1.68277 32.9492 2.46426C34.9889 2.88627 37.1368 3.66777 38.306 5.53294C39.4495 7.36164 38.9859 9.70612 37.039 10.5085C36.8638 9.58629 36.6526 8.67976 36.3951 7.79927C36.2972 7.46063 36.0603 7.30433 35.8182 7.2887C36.0036 6.97089 35.9779 6.5593 35.5504 6.36132C26.0833 2.06831 14.3498 2.94358 4.6561 6.15813C4.30585 6.27275 4.30585 6.84064 4.64065 6.91358C4.51703 6.95526 4.41917 7.06467 4.41402 7.24181C4.17193 16.7396 3.69291 31.4161 13.3815 36.7459C14.798 37.5274 16.4101 38.0431 18.0944 38.3401C18.5838 39.2519 18.9083 40.3199 19.0937 41.3202C19.274 42.2841 19.0628 43.4042 19.3358 44.3316C15.0864 45.1704 10.801 47.7181 8.78701 51.3234C7.41176 53.7877 6.95334 56.6219 6.64945 59.3988C6.3198 62.4206 6.23224 65.4945 6.39706 68.5371C6.31465 68.4746 6.21163 68.4329 6.09832 68.4537C2.27645 69.006 3.11602 74.2629 5.37206 76.102C7.26239 77.6441 9.79656 78.0036 12.135 78.285C15.5139 78.6861 18.9186 78.7903 22.3181 78.7591C25.6609 78.7278 29.0244 78.634 32.3672 78.4048C34.8087 78.2381 37.3325 77.8577 39.3156 76.2895C42.3339 73.8982 42.8336 68.3235 38.3524 67.2659L38.3575 67.2711ZM33.8197 55.955C35.7152 60.2585 36.4621 64.8276 36.3745 69.4697C36.0758 69.1675 35.7049 68.9226 35.2774 68.6726C34.443 68.188 33.7373 67.938 33.1398 67.0731C32.6556 66.375 32.4857 65.4789 32.1766 64.6974C31.1156 62.0038 28.7308 61.5714 26.9692 59.5239C23.6315 55.6424 26.2945 49.5728 23.0546 45.5507C23.1473 45.5559 23.2401 45.5611 23.3328 45.5716C28.5402 46.1134 31.8882 51.563 33.8197 55.955ZM12.6346 68.0891C13.0724 68.8028 13.5412 69.501 14.015 70.1887C13.3712 69.6989 12.681 69.2561 11.9341 68.8653C12.135 68.5058 12.3668 68.1724 12.614 67.8442C12.578 67.9119 12.5728 68.0005 12.6295 68.0891H12.6346ZM20.6029 43.4146C20.6029 43.4146 20.6183 43.4303 20.6286 43.4355C20.9686 43.6387 21.3085 43.8471 21.6536 44.0502C21.2622 44.0659 20.8656 44.1023 20.4638 44.1492C20.5411 43.92 20.5823 43.6699 20.6029 43.4146ZM20.5926 42.6696C20.7883 42.8936 20.9892 43.1125 21.1901 43.3365C21.0561 43.2792 20.9222 43.2166 20.7934 43.1593C20.7265 43.1281 20.6595 43.1437 20.6132 43.1854C20.6132 43.0135 20.6132 42.8415 20.5977 42.6696H20.5926ZM22.0142 45.5142C22.0863 45.6341 22.1584 45.7539 22.2357 45.8737L22.0708 46.0873C21.9781 46.2072 21.9575 46.3218 22.0245 46.4625C22.1841 46.8167 22.7971 47.1606 22.1172 47.1919C21.9524 47.1971 21.8545 47.3117 21.8287 47.4471C21.6588 46.8063 21.4733 46.1759 21.2776 45.5611C21.2776 45.5507 21.2673 45.5455 21.2673 45.5403C21.5197 45.5247 21.7721 45.5142 22.0193 45.5142H22.0142ZM19.583 36.9386C18.8155 36.2509 18.0481 35.5632 17.2806 34.8755C18.4756 35.6257 19.7478 36.3082 20.9634 37.0116C20.505 37.0012 20.0414 36.9751 19.583 36.9386ZM26.4953 32.3747C26.6138 32.5623 26.7271 32.7498 26.8456 32.9374C26.6035 32.8123 26.3666 32.6769 26.1348 32.5258C25.9391 32.333 25.7021 32.1715 25.3982 32.01C25.1149 31.8589 24.8831 32.0152 24.8059 32.2392C24.399 32.0829 23.9715 31.9579 23.4924 31.8537C23.1061 31.7703 22.8022 32.208 23.0495 32.5258C22.5189 32.1663 21.9833 31.812 21.4476 31.4525C23.1061 31.5359 24.878 31.6245 26.619 31.8693C26.4593 31.9735 26.382 32.1976 26.4953 32.3747ZM20.7059 31.8954C21.5042 32.5675 22.2511 33.2604 22.9671 33.995C21.7257 33.1249 20.4895 32.2601 19.2482 31.39C19.7221 31.39 20.1908 31.3952 20.6595 31.4161C20.5617 31.5619 20.5462 31.7599 20.7059 31.8954ZM17.9399 31.4369C19.1194 32.7029 20.3093 33.969 21.4939 35.2298C19.5779 34.0888 17.6618 32.9582 15.7405 31.8277C15.6993 31.8016 15.6581 31.786 15.6169 31.7808C16.3741 31.5984 17.1519 31.489 17.9399 31.4317V31.4369ZM23.9921 56.1999C24.0642 56.2468 24.1363 56.2937 24.2135 56.3406C24.2857 56.3875 24.3784 56.3614 24.4402 56.3145C24.4711 56.4917 24.5071 56.6688 24.5483 56.8459C24.3681 56.6271 24.1826 56.4135 23.9972 56.2051L23.9921 56.1999ZM24.708 57.4659C24.878 58.039 25.1046 58.5965 25.4034 59.1279C25.1149 58.9299 24.8471 58.7059 24.6102 58.4506C24.1981 58.1953 24.2342 57.8671 24.708 57.4659ZM24.2238 54.5848C24.2599 55.0381 24.3063 55.4861 24.3732 55.929C23.7036 55.1006 21.8751 53.0948 24.2238 54.5848ZM23.1164 51.5213C22.9774 51.464 22.8434 51.4015 22.7044 51.3442C22.6786 51.3338 22.6477 51.3286 22.622 51.3234C22.5859 51.0629 22.5499 50.8024 22.5035 50.5367C22.6992 50.8701 22.9053 51.1983 23.1164 51.5213ZM22.1635 48.8017C22.0863 48.4735 22.009 48.1453 21.9266 47.8223C22.112 48.2026 22.3129 48.5204 22.5447 48.7965C22.4262 48.7965 22.2923 48.7965 22.1635 48.8017ZM23.7036 53.746C23.4152 53.6418 23.1164 53.5637 22.7919 53.5063C22.7816 53.1104 22.761 52.7144 22.7301 52.3185C23.0546 52.7926 23.3791 53.2667 23.7036 53.7408V53.746ZM22.7816 54.6525C22.9053 54.7984 23.0186 54.9495 23.1113 55.1058C23.2864 55.309 23.4615 55.5122 23.6367 55.7154C23.5852 55.705 23.544 55.6945 23.5027 55.6841C23.2916 55.4653 23.0701 55.2517 22.8434 55.0433C22.8177 55.0172 22.7868 55.012 22.761 55.0172C22.7713 54.8974 22.7765 54.7724 22.7816 54.6525ZM23.3843 52.2716C23.5027 52.3237 23.6212 52.381 23.7345 52.4331C23.8633 52.4904 24.0178 52.4487 24.1054 52.3549C24.1208 52.6936 24.1311 53.0374 24.1466 53.3761C23.8891 53.0062 23.6367 52.6363 23.3791 52.2716H23.3843ZM23.6882 49.75C23.7706 49.7916 23.853 49.7968 23.92 49.776C24.0075 50.495 24.0539 51.2244 24.0848 51.9642C23.6985 51.4119 21.7103 48.7548 23.683 49.75H23.6882ZM23.0752 47.7754C23.271 47.765 23.4255 47.5826 23.374 47.3794C23.271 47.0095 23.0804 46.5771 22.6735 46.4312C22.7765 46.4677 22.8795 46.4312 22.9516 46.3583C23.3997 47.2179 23.6624 48.1401 23.8221 49.0935C22.4468 48.4631 22.1893 48.0202 23.0752 47.7702V47.7754ZM22.5602 44.0398C22.5602 44.0398 22.5499 44.0086 22.5396 43.9929C22.2923 43.6543 22.0348 43.3261 21.7721 43.003C22.1326 43.1646 22.5035 43.3209 22.8847 43.4511C22.9722 43.4824 23.0443 43.4771 23.1113 43.4615C23.1473 43.6647 23.1834 43.8731 23.2349 44.0763C23.204 44.0763 23.1679 44.0711 23.137 44.0659C22.9465 44.0555 22.7559 44.045 22.5653 44.045L22.5602 44.0398ZM22.6838 41.3411C22.828 41.3984 22.9568 41.3619 23.0495 41.2785C23.0083 41.638 22.9928 42.0027 23.0031 42.3674C22.6838 41.9506 22.3696 41.5286 22.0657 41.1014C22.2717 41.1796 22.4777 41.2577 22.6838 41.3411ZM23.1525 40.6742C23.1525 40.6742 23.1267 40.6273 23.1113 40.6065C22.7919 40.2626 22.4623 39.924 22.1429 39.5853C22.2202 39.6114 22.2923 39.6426 22.3747 39.6634C22.6117 39.7312 22.931 39.5332 22.9001 39.2571C22.864 38.9653 22.7971 38.7621 22.658 38.5902C23.0958 38.5641 23.5388 38.5277 23.9715 38.4756C23.58 39.1737 23.3122 39.9135 23.1576 40.6742H23.1525ZM22.8177 36.9803C22.5756 36.9907 22.3335 37.0012 22.0966 37.0064C21.2519 36.3186 20.402 35.6414 19.5521 34.9536C20.6389 35.6309 21.7257 36.3082 22.8177 36.9751V36.9803ZM22.2305 58.0078C22.2305 58.0338 22.2357 58.0599 22.2563 58.0911C22.4056 58.2995 22.9259 59.1018 23.3946 59.6489C22.9207 59.4249 22.385 59.1956 22.2666 59.154C22.0811 59.0914 21.9421 59.3155 22.0245 59.4718C22.4674 60.2845 22.9156 61.0868 23.3843 61.884C22.6117 61.4568 21.8442 61.0295 21.0819 60.5867C21.5764 59.7583 21.9575 58.8987 22.2254 58.013L22.2305 58.0078ZM21.5042 62.7488C21.0561 62.5404 20.6029 62.3893 20.0517 62.2695C19.7787 62.207 19.4748 62.5144 19.6603 62.7853C19.9487 63.2125 20.2475 63.6293 20.5411 64.0513C19.9384 63.7596 19.3409 63.4678 18.7434 63.1656C19.4594 62.6134 20.1084 61.9778 20.6698 61.2015C20.9428 61.7225 21.221 62.2383 21.5042 62.7488ZM19.0576 65.036C18.5838 64.7599 18.0687 64.5358 17.4815 64.3535C17.1519 64.2493 16.9664 64.614 17.0797 64.8849C17.2806 65.3642 17.5073 65.8175 17.739 66.2656C17.1828 65.7915 16.6007 65.3486 15.9981 64.9214C16.7552 64.4838 17.4815 64.0513 18.1666 63.5824C18.4601 64.067 18.764 64.5515 19.0576 65.036ZM12.6604 67.7817C12.9746 67.3701 13.3248 66.9845 13.706 66.6198C14.288 67.4795 14.8958 68.3079 15.5448 69.0946C14.7413 68.5788 13.9017 68.1151 13.0055 67.7087C12.8819 67.6514 12.7428 67.6931 12.6604 67.7764V67.7817ZM12.4544 72.7884C12.6295 72.976 12.8716 72.7051 12.7273 72.5123C11.2645 70.6159 13.5103 72.158 13.8966 72.3612C14.1799 72.5123 14.4116 72.1685 14.2262 71.934C13.7008 71.2776 13.1703 70.6211 12.6346 69.9699C12.2895 69.5531 11.5993 69.2509 12.3565 69.6364C13.9223 70.4387 15.1946 71.7725 16.2659 73.1531C16.4926 73.4345 16.884 73.0333 16.6574 72.7572C16.5956 72.6738 16.4668 72.5279 16.3071 72.3456C16.2093 72.231 16.1114 72.1164 16.0135 72.007C15.0503 70.9129 13.4485 69.0633 13.5721 68.5423C13.6081 68.386 17.8008 71.512 17.8318 71.5433C18.0944 71.7829 18.4808 71.3974 18.2232 71.1473C17.5639 70.5117 14.1438 67.4951 14.391 66.7292C14.391 66.7397 18.7331 69.8188 18.831 69.8969C19.1143 70.1314 19.4748 69.7771 19.2379 69.4853C18.3623 68.4277 17.5433 67.344 16.7707 66.2187C17.6103 66.896 18.388 67.6202 19.1143 68.4485C19.3667 68.7351 19.8663 68.3548 19.6448 68.0369C19.0267 67.1617 18.5168 66.276 18.0687 65.3278C18.8877 65.682 19.5573 66.1666 20.2063 66.8699C20.4792 67.1617 20.9686 66.7813 20.7574 66.4427C20.2887 65.6925 19.8199 64.9422 19.3512 64.1972C20.0363 64.5306 20.7162 64.8745 21.4012 65.2131C21.6794 65.3538 22.0708 65.0516 21.8648 64.7442C21.4991 64.2024 21.1282 63.6658 20.7574 63.1292C21.2673 63.2907 21.7515 63.5355 22.1996 63.8898C22.488 64.0774 22.8022 63.7127 22.6529 63.4313C22.3078 62.8061 21.9627 62.1757 21.6124 61.5505C22.4262 61.9882 23.2349 62.4362 24.0487 62.8843C24.296 63.0197 24.5844 62.7436 24.4402 62.4883C23.8633 61.4724 21.8597 58.6069 24.4093 60.8628C24.5741 61.0087 24.8934 60.8107 24.7389 60.6075C24.0281 59.6749 23.3019 58.7632 22.5344 57.8775C22.4571 57.7837 22.3232 57.8358 22.2666 57.9244C22.5292 57.0387 22.6838 56.1322 22.761 55.2204C22.9362 55.3871 23.1061 55.5382 23.2813 55.6789C23.2298 55.7154 23.307 55.8091 23.5182 55.9654C24.0281 56.7834 24.7441 56.9606 23.4203 57.0387C23.3276 57.0439 23.2658 57.1429 23.3122 57.2315C23.5388 57.6483 23.7551 58.0234 24.0487 58.3672C24.0024 58.4402 24.0024 58.5444 24.0899 58.6069C24.4711 58.8778 24.8522 59.1487 25.2282 59.4197C25.3467 59.503 25.4858 59.378 25.4909 59.2581C25.6094 59.4613 25.7382 59.6593 25.8772 59.8573C26.5829 60.8264 27.5203 61.4151 28.4835 62.082C30.0545 63.1656 30.7447 64.2493 31.4143 66.0572C31.7646 67.0002 32.1406 67.9171 32.8874 68.61C33.8918 69.5374 35.4268 69.7093 36.0139 71.0796C36.0758 71.2254 36.1839 71.314 36.3024 71.3505C36.2921 71.5224 36.2818 71.6943 36.2663 71.8611C28.2672 73.9242 18.7486 75.185 10.7237 72.3404C10.7392 72.2987 10.7546 72.257 10.7598 72.2101C10.9297 71.2359 11.2233 70.3502 11.6148 69.5218C12.0835 70.1105 12.5522 70.6992 13.0209 71.2828C12.6243 71.0744 12.2226 70.866 11.826 70.6576C11.6251 70.5534 11.383 70.7253 11.4397 70.9545C11.6457 71.7412 11.9032 72.1997 12.4595 72.7832L12.4544 72.7884ZM14.2108 66.1666C14.5919 65.8488 14.9988 65.557 15.4315 65.2809C16.0908 66.302 16.7861 67.2919 17.5176 68.2558C16.4513 67.5107 15.3542 66.8126 14.2108 66.1666ZM24.1517 36.8657C24.1517 36.8657 24.1311 36.8292 24.1157 36.8136C23.1731 35.8081 22.2254 34.813 21.2776 33.8127C22.622 34.7713 23.9715 35.7247 25.3158 36.6833C25.3158 36.6833 25.321 36.6833 25.3261 36.6833C24.9347 36.7563 24.5432 36.8136 24.1466 36.8605L24.1517 36.8657ZM29.6115 35.1412C28.4475 35.8341 27.1701 36.2874 25.8515 36.5791C25.97 36.4437 26.0215 36.2561 25.8978 36.0946C25.5218 35.5945 25.1304 35.1204 24.7286 34.6515C25.1664 34.9484 25.6043 35.2454 26.0421 35.5476C26.4438 35.8237 26.8765 35.2193 26.552 34.8807C26.0215 34.3336 25.4858 33.7918 24.9501 33.25C25.357 33.448 25.7536 33.6876 26.1451 33.9794C26.3717 34.1513 26.5984 34.0211 26.7065 33.8179C27.0465 33.9846 27.3967 34.1461 27.7676 34.2868C28.1127 34.417 28.4784 33.9429 28.262 33.6355C28.056 33.3542 27.85 33.0676 27.6543 32.7811C27.8603 32.8696 28.0612 32.9113 28.3651 32.7759C28.5402 32.9061 28.7102 33.0416 28.8853 33.1718C29.3025 33.4896 29.7146 32.7759 29.2922 32.4633C29.251 32.432 29.2098 32.4008 29.1686 32.3695C30.0854 32.6144 30.961 32.9322 31.78 33.349C31.1568 34.0367 30.4357 34.6358 29.6012 35.1308L29.6115 35.1412ZM7.60234 26.7375C5.62445 20.5793 5.56264 13.6605 5.13512 7.25223C5.12482 7.06467 5.00635 6.95526 4.86728 6.91879C15.0246 5.71007 25.0016 3.21971 34.819 7.63776C34.922 7.68465 35.0198 7.70549 35.1126 7.70549C35.0456 7.84095 35.0095 8.00246 35.0353 8.18481C35.9933 14.8171 36.5805 21.4025 34.6541 27.9514C34.1803 29.5561 33.5004 31.0931 32.5475 32.4112C29.0089 30.4991 24.2342 30.2855 20.3144 30.1813C16.9613 30.0979 13.5824 30.6294 11.1461 33.0624C9.50297 31.2702 8.34405 29.0507 7.60234 26.7271V26.7375ZM12.1453 34.0627C12.0114 33.9481 11.8929 33.8179 11.7642 33.698C12.8407 32.755 14.0975 32.1715 15.4418 31.8277C15.2821 31.9319 15.2255 32.208 15.4315 32.3643C16.5132 33.2083 17.5845 34.0732 18.6507 34.9432C17.3527 34.1721 16.0599 33.3959 14.7619 32.6196C14.5147 32.4737 14.2365 32.8228 14.4529 33.0259C15.2409 33.771 16.029 34.516 16.8171 35.261C15.5963 34.5629 14.3241 33.9533 12.9643 33.4948C12.6295 33.3802 12.3153 33.8856 12.6037 34.12C13.5824 34.9067 14.5971 35.5893 15.689 36.1259C14.4116 35.6674 13.2064 35.0057 12.1402 34.0679L12.1453 34.0627ZM19.0576 38.4912C19.4027 38.5329 19.7478 38.5589 20.0981 38.585C20.1135 38.6475 20.1444 38.71 20.196 38.7621C20.5205 39.1164 20.8553 39.4707 21.1849 39.825C21.1385 39.8041 21.087 39.7885 21.0407 39.7677C20.6801 39.627 20.3556 40.1063 20.5462 40.4189C20.9171 41.0076 21.3085 41.5807 21.7257 42.1382C21.2931 41.9402 20.8759 41.711 20.4586 41.4557C20.4329 41.4401 20.4123 41.4348 20.3865 41.4296C20.3505 41.2837 20.3144 41.1379 20.2784 41.0076C20.0208 40.0438 19.5933 39.2571 19.0576 38.5016V38.4912ZM9.29694 53.6991C10.9606 49.2706 15.9105 46.129 20.6956 45.5924C20.6904 45.6341 20.6904 45.6758 20.6956 45.7226C21.8442 51.2765 23.1525 58.7007 17.7648 62.5404C15.9878 63.8065 13.9378 64.5306 12.4132 66.1562C10.9091 67.7556 9.99229 69.7302 9.62144 71.8923C9.62144 71.9028 9.62144 71.9132 9.62144 71.9236C8.98789 71.6631 8.3595 71.3765 7.75171 71.0639C7.61264 70.991 7.47357 71.0223 7.37571 71.1004C7.45812 65.4528 7.29329 59.0498 9.30209 53.6991H9.29694ZM39.7534 73.7471C38.5893 75.6643 36.3693 76.4667 34.2833 76.7897C30.2657 77.4149 26.0009 77.3315 21.9421 77.3732C17.9657 77.4149 13.8142 77.4045 9.89958 76.6021C8.08136 76.2322 5.94894 75.5185 5.06816 73.721C4.25949 72.0747 4.75912 70.0115 6.37131 69.1154C6.39706 69.0998 6.40736 69.0842 6.42796 69.0685C6.47432 69.7719 6.52583 70.4752 6.59794 71.1734C6.634 71.5381 7.04091 71.6423 7.24694 71.4599C7.26239 71.512 7.28299 71.5641 7.32935 71.611C10.4971 74.9818 16.4565 75.1694 20.7471 75.3049C26.176 75.4768 31.7388 74.8099 36.905 73.0958C37.2192 72.9916 37.3634 72.7416 37.3737 72.4863C37.5334 72.3716 37.657 72.1893 37.6879 71.9496C37.827 70.8295 37.894 69.7041 37.9043 68.5736C37.9352 68.584 37.9609 68.5944 37.9918 68.6048C40.2582 69.1675 40.8969 71.8767 39.7534 73.7523V73.7471Z" fill="var(--fill-0, #3C3C3B)"/>
</g>
<defs>
<clipPath id="clip0_0_189">
<rect width="41.6542" height="78.7643" fill="white"/>
</clipPath>
</defs>
</svg>
