<svg preserveAspectRatio="none" width="100%" height="100%" overflow="visible" style="display: block;" viewBox="0 0 59.4565 55.5931" fill="none" xmlns="http://www.w3.org/2000/svg">
<g id="Group">
<path id="Vector" d="M58.909 23.1391C57.9476 23.2184 56.9893 23.2977 56.0279 23.3866C55.5488 23.431 55.0666 23.4659 54.5874 23.5198C54.4288 23.5389 54.2702 23.5579 54.1083 23.577C53.8957 23.5294 53.7276 23.5579 53.5975 23.6658C53.5975 23.5865 53.5499 23.5103 53.4484 23.4976C53.4325 23.4976 53.4198 23.4976 53.4071 23.4976C53.442 21.5368 52.7091 19.4014 51.8873 17.6753C51.0147 15.8446 49.809 14.2264 48.3527 12.8271C48.9492 12.0688 49.5457 11.3136 50.139 10.5553C50.5705 10.0064 51.3955 9.26711 51.5732 8.57859C51.6747 8.18832 51.5637 7.92179 51.3098 7.62671C50.6816 6.88425 49.6345 6.29091 48.8635 5.69123C46.2014 3.61297 43.3204 0.652639 39.8842 0.00536399C39.6874 -0.032711 39.5573 0.138626 39.5478 0.30679C39.3225 0.236986 39.0687 0.306789 38.9799 0.598698C38.6277 1.77585 38.2469 2.94348 37.8218 4.09525C37.7393 4.31736 37.349 5.75786 37.1523 5.8118C36.8572 5.89112 36.4162 5.46913 36.1687 5.33904C34.5187 4.48869 32.6023 4.26977 30.7747 4.46966C28.6584 4.70128 26.3961 5.47547 24.5843 6.59234C24.5685 6.60186 24.5463 6.61455 24.5241 6.63041C23.9878 4.95829 23.385 3.30837 22.7917 1.65846C22.7187 1.45222 22.487 1.36337 22.2872 1.37924C16.3633 1.76316 10.8266 4.5236 6.82553 8.88001C6.69862 9.01962 6.70179 9.33056 6.8414 9.46383C8.2819 10.8472 9.72241 12.2306 11.1629 13.6172C8.0249 16.2475 6.09894 20.0899 5.89904 24.183C4.12856 24.0402 2.35807 23.8943 0.590754 23.7515C0.260771 23.7261 0.0164567 23.9894 0.0450129 24.3131C0.0989525 24.9255 0.165584 25.5346 0.238561 26.1407C0.206832 26.1438 0.178275 26.147 0.146546 26.1534C-0.0628663 26.1851 -0.0343101 26.4992 0.146546 26.55C0.197313 26.5627 0.244907 26.5754 0.295673 26.5881C0.863625 31.0397 1.92021 35.4056 3.4559 39.6287C3.52253 39.8128 3.78588 39.9746 3.9826 39.9238C5.95616 39.4066 7.80279 38.6451 9.55424 37.6235C10.687 41.2184 13.2031 44.1692 16.5981 45.8318C16.1888 46.5996 15.7763 47.3707 15.367 48.1385C15.0117 48.808 14.3802 49.6298 14.4152 50.4262C14.4723 51.7366 15.9921 52.1142 17.0011 52.4505C20.7229 53.6911 24.5114 54.7318 28.3411 55.5853C28.579 55.6393 28.8836 55.4013 28.8868 55.1538C28.8932 53.4151 28.8963 51.6731 28.9027 49.9344C31.3807 50.4262 33.8524 50.0645 36.1433 49.046C36.6351 50.1597 37.1269 51.2702 37.6187 52.3839C37.8947 53.0058 38.1486 54.129 38.964 54.2591C39.8461 54.3987 41.0232 53.3802 41.7467 52.9582C42.8508 52.3141 43.9423 51.6446 45.0116 50.9434C46.1094 50.2231 47.1882 49.4743 48.2416 48.6906C49.0158 48.1131 50.3072 47.4658 50.7546 46.5806C51.056 45.9809 50.7546 45.5335 50.3072 45.1306C49.4156 44.3247 48.4352 43.5981 47.4865 42.8524C49.4537 41.0788 50.8656 38.8323 51.5986 36.2845C53.239 36.9 55.038 37.4775 56.7894 37.633C58.3442 37.7726 58.2966 36.5701 58.2966 35.3485C58.2966 31.468 58.2553 27.5431 59.4293 23.8022C59.5435 23.4437 59.2834 23.1137 58.909 23.1454V23.1391ZM9.36387 17.6151C9.20205 17.6563 9.0434 17.6944 8.88158 17.7356C8.99264 17.5516 9.11003 17.3707 9.23061 17.1931C9.25599 17.3327 9.30041 17.4723 9.36387 17.6151ZM8.43103 19.8266C8.4818 19.852 8.53256 19.8742 8.58333 19.8995C8.31046 19.9376 8.04076 19.9725 7.76789 20.0106C7.93923 19.5632 8.1296 19.1254 8.34536 18.697C8.52622 18.7985 8.71025 18.9001 8.8911 19.0016C8.71659 19.1222 8.54525 19.2428 8.37074 19.3665C8.20893 19.4807 8.20258 19.779 8.43103 19.8266ZM7.27926 22.5331C7.08889 22.5648 7.0635 22.8567 7.22532 22.9424C7.61876 23.1518 8.01221 23.358 8.40565 23.5674C7.91384 23.6341 7.41887 23.6658 6.92072 23.6626C6.97783 23.0725 7.06985 22.4887 7.19677 21.9144C7.60607 22.0286 8.00269 22.1682 8.38661 22.3364C8.01855 22.403 7.65049 22.4696 7.27926 22.5331ZM6.88265 24.1354C7.48867 24.2115 8.07566 24.3289 8.65314 24.4876C8.05663 24.5352 7.45695 24.5828 6.86044 24.6304C6.86361 24.4654 6.87313 24.3004 6.88265 24.1354ZM7.55213 20.623C7.9075 20.6896 8.23748 20.826 8.54208 21.0291C8.14547 21.1148 7.74885 21.1973 7.35541 21.2829C7.4157 21.0608 7.48233 20.8419 7.55213 20.623ZM4.20471 25.0302C3.19572 25.0302 2.18673 25.0682 1.17457 25.1317C1.15553 25.1317 1.14284 25.138 1.12698 25.1444C1.11429 25.0206 1.09842 24.9001 1.08573 24.7795C2.12645 24.862 3.16716 24.9477 4.20788 25.0302H4.20471ZM1.1714 25.5632C1.85675 25.6616 2.5421 25.7568 3.22745 25.8551C2.55796 25.8837 1.89165 25.9344 1.22216 26.0106C1.20313 25.8615 1.18726 25.7123 1.1714 25.5632ZM1.78694 27.4701C1.5458 27.4701 1.476 27.8541 1.72666 27.9048C3.28139 28.2158 4.83929 28.4664 6.40671 28.6631C4.81073 28.6949 3.21476 28.7298 1.62195 28.7615C1.51407 28.1269 1.41889 27.4892 1.33004 26.8482C2.31999 27.0862 3.31629 27.2798 4.31893 27.4321C3.47493 27.4447 2.63094 27.4574 1.78377 27.467L1.78694 27.4701ZM2.41518 29.8562C2.17721 29.8752 2.07885 30.2655 2.3549 30.3099C4.18567 30.5891 6.01961 30.8588 7.85356 31.1317C5.99423 31.2586 4.13173 31.3855 2.2724 31.5093C2.22798 31.5093 2.19308 31.5283 2.16135 31.5505C1.99318 30.7763 1.83454 29.9989 1.6981 29.2216C3.09419 29.3739 4.49344 29.4849 5.8927 29.5516C4.73458 29.6531 3.57647 29.7546 2.41518 29.8562ZM2.57065 32.8609C2.58969 32.8609 2.60556 32.8641 2.62459 32.8673C3.91914 33.0418 5.21369 33.1782 6.51142 33.2829C5.45801 33.3527 4.40143 33.4384 3.35119 33.559C3.12274 33.5843 3.11957 33.8921 3.35119 33.9175C4.69016 34.0603 6.03231 34.2031 7.37128 34.3458C5.98789 34.4093 4.60767 34.4791 3.22427 34.5457C3.09419 34.5521 3.03073 34.6409 3.02755 34.7361C2.999 34.7488 2.97679 34.7678 2.95775 34.79C2.69757 33.8477 2.4596 32.9022 2.24384 31.9503C3.07832 32.1438 3.91597 32.2993 4.75362 32.4199C4.04289 32.4357 3.33215 32.4516 2.62142 32.4706C2.40566 32.477 2.33586 32.8324 2.56748 32.8641L2.57065 32.8609ZM3.28456 35.9101C4.50613 35.964 5.72453 35.9989 6.94611 36.0053C5.79751 36.1163 4.65209 36.2274 3.50666 36.3479C3.47494 36.3511 3.44955 36.367 3.42734 36.386C3.37975 36.2274 3.33215 36.0687 3.28456 35.9101ZM3.03707 35.0661C3.03707 35.0661 3.03707 35.0661 3.04025 35.0661C3.44321 35.1708 3.84617 35.2596 4.24913 35.3453C3.88741 35.3961 3.52253 35.4468 3.16082 35.4976C3.11957 35.3548 3.07832 35.2089 3.03707 35.0629V35.0661ZM6.59391 35.4024C6.67641 35.3897 6.7589 35.3802 6.84457 35.3675C7.37762 35.4341 7.91067 35.5008 8.44055 35.5706C7.82183 35.5357 7.20628 35.4786 6.59391 35.4024ZM6.07355 34.8535C7.27609 34.7615 8.47862 34.6727 9.68433 34.5965C9.68751 34.5965 9.69068 34.5965 9.69385 34.5965C8.79592 34.7171 7.89798 34.8376 7.00004 34.9614C6.69227 34.9233 6.38133 34.8852 6.07038 34.8503L6.07355 34.8535ZM3.76684 37.4648C3.75415 37.4299 3.74463 37.3982 3.73194 37.3633C3.91597 37.3823 4.1 37.4014 4.28086 37.4172C4.10952 37.4331 3.93818 37.449 3.76684 37.4648ZM3.97943 38.0899C3.96039 38.0328 3.94135 37.9788 3.92232 37.9217C4.1825 37.9598 4.44585 38.001 4.70603 38.0423C4.46171 38.0581 4.22057 38.074 3.97626 38.0899H3.97943ZM4.22692 38.826C4.19836 38.7435 4.1698 38.6578 4.14125 38.5753C4.38556 38.5849 4.62988 38.5912 4.87419 38.6007C4.96938 38.6007 5.02649 38.5563 5.05822 38.496C5.15023 38.4897 5.24225 38.4865 5.33426 38.4801C4.96938 38.6071 4.60132 38.7245 4.22692 38.8292V38.826ZM6.78429 37.9185C6.30518 37.8551 5.82289 37.7853 5.34378 37.7186C6.08625 37.6457 6.82871 37.5727 7.57117 37.5092C7.825 37.487 7.83135 37.1031 7.57117 37.1094C7.0286 37.1221 6.49238 37.1126 5.95616 37.0936C6.85092 37.046 7.74251 37.0206 8.6341 37.0111C8.03124 37.3474 7.4157 37.652 6.78429 37.9217V37.9185ZM10.5918 37.5949C10.8964 37.652 11.201 37.7091 11.5056 37.7631C11.2327 37.7853 10.9598 37.8138 10.6838 37.8519C10.6521 37.7662 10.6203 37.6806 10.5918 37.5949ZM10.8964 38.4103C11.5341 38.5722 12.1687 38.7308 12.8065 38.8926C12.2576 38.9022 11.7087 38.9402 11.1534 38.9973C11.0614 38.8038 10.9757 38.6102 10.8932 38.4135L10.8964 38.4103ZM11.5119 39.6859C11.9974 39.8477 12.486 39.9809 12.9778 40.0888C12.6098 40.1396 12.2385 40.2062 11.8673 40.2855C11.7436 40.0888 11.6262 39.8889 11.5119 39.6859ZM12.248 40.8567C13.3617 41.1867 14.485 41.4754 15.6177 41.7229C14.9609 41.78 14.3073 41.8339 13.6505 41.8879C13.4125 41.9069 13.3554 42.2305 13.5934 42.3099C14.5325 42.6176 15.4781 42.8524 16.4331 43.0333C15.9032 43.0523 15.3734 43.0714 14.8467 43.0936C14.6563 43.0999 14.5801 43.3633 14.7197 43.4616C13.7774 42.7128 12.9461 41.8371 12.2512 40.8567H12.248ZM15.697 44.1692C15.3575 43.9503 15.0307 43.7123 14.7166 43.4616C14.7356 43.4743 14.761 43.487 14.7896 43.4902C15.6526 43.6647 16.5188 43.8297 17.385 43.9979C16.8234 44.0359 16.2618 44.093 15.697 44.1692ZM16.56 48.0211C16.5791 48.0338 16.6045 48.0465 16.633 48.0528C17.4421 48.1766 18.2512 48.3035 19.0603 48.4272C18.0672 48.5129 17.0804 48.6367 16.0968 48.7953C16.2554 48.5288 16.4236 48.2686 16.56 48.0211ZM17.4738 45.1338C17.3787 45.0925 17.2898 45.0449 17.1978 45.0005C17.531 45.0576 17.8641 45.1052 18.2004 45.1401C18.0164 45.1814 17.8324 45.2194 17.6484 45.2607C17.5976 45.2067 17.5373 45.1623 17.4738 45.1338ZM18.8318 46.2316L17.3977 46.46C17.4802 46.3077 17.5595 46.1554 17.642 46.0063C18.0386 46.0951 18.4352 46.1713 18.8318 46.2316ZM18.8668 47.1613C18.1624 47.2755 17.4643 47.4341 16.7663 47.6404C16.8932 47.4024 17.0201 47.1644 17.1502 46.9264L18.8668 47.1644V47.1613ZM15.6018 49.8265C15.6462 49.6679 15.7129 49.5092 15.789 49.3474C16.4871 49.4267 17.1819 49.5092 17.88 49.5885C17.1121 49.6456 16.3475 49.7535 15.5828 49.9058C15.5891 49.8773 15.5923 49.8519 15.6018 49.8233V49.8265ZM15.5415 50.2961C16.046 50.3564 17.2327 50.496 18.3432 50.6134C17.2644 50.6895 16.1539 50.826 15.8144 50.8736C15.6558 50.7308 15.5574 50.5436 15.5415 50.2961ZM57.313 32.5278C57.3035 33.2893 57.3035 34.0508 57.3066 34.8123C57.3066 35.1581 57.3098 35.504 57.3066 35.8498C57.3003 36.3511 57.4113 36.5193 56.9068 36.6399C56.2183 36.808 54.8762 36.2686 54.2067 36.0909C53.4103 35.8784 52.6298 35.6118 51.8587 35.3231C51.7191 35.2692 51.5922 35.2819 51.4875 35.3326C51.2432 35.1613 50.8815 35.1771 50.7895 35.542C50.0882 38.2834 48.6033 40.6726 46.4362 42.4939C46.1919 42.7001 46.2109 43.0587 46.4553 43.2522C47.1882 43.836 47.9243 44.4198 48.6573 45.0068C48.8127 45.1306 49.7012 45.7017 49.7583 45.8826C49.9169 46.4029 49.2474 46.7297 48.9333 46.9709C47.4642 48.1004 45.9508 49.1729 44.3992 50.1914C43.5298 50.7593 42.6509 51.3083 41.7562 51.8381C41.3564 52.0729 40.9566 52.3045 40.5536 52.533C40.2839 52.6853 39.5986 53.2437 39.3352 53.2025C38.7102 53.1105 38.358 51.6636 38.1105 51.1084C37.6821 50.1438 37.2506 49.1824 36.8223 48.2178C36.7208 47.9894 36.4257 47.8561 36.1909 47.9703C33.8842 49.0999 31.3871 49.487 28.8361 49.2998C28.6203 48.9222 27.9476 48.9222 27.9445 49.4426C27.9349 51.1211 27.9254 52.8027 27.9159 54.4812C25.7742 53.9894 23.6483 53.4405 21.5383 52.8249C21.7731 52.8122 22.0079 52.8027 22.2459 52.7868C22.395 52.7773 22.4521 52.5362 22.284 52.5076C22.0682 52.4695 20.1645 52.2601 18.9873 52.0475C18.8382 51.9999 18.6922 51.9492 18.5431 51.9016C18.7145 51.8857 18.908 51.8572 19.0952 51.8476C19.4664 51.8286 19.8408 51.8254 20.2121 51.8286C20.4627 51.9397 20.6341 51.9428 20.7197 51.8413C20.9291 51.8476 21.1386 51.8572 21.348 51.8667C21.5415 51.8762 21.5415 51.5748 21.348 51.5653C20.523 51.5208 19.7012 51.4637 18.8794 51.3685C18.2766 51.2987 17.6801 51.2131 17.0804 51.1115C16.376 51.0132 16.265 50.9814 16.7536 51.0163C18.137 50.6959 19.898 50.8989 21.3067 50.9973C21.5034 51.01 21.4939 50.7181 21.3067 50.6959C19.6695 50.4992 18.0323 50.2548 16.3919 50.0867C16.944 50.0296 17.4929 49.9312 18.045 49.8931C18.9524 49.8297 19.8567 49.8646 20.7642 49.9312C20.9799 49.9471 20.9736 49.6234 20.7642 49.598C19.3395 49.4331 17.9149 49.2617 16.4934 49.0904C17.9022 48.881 19.311 48.7477 20.7388 48.6874C20.9387 48.6779 21.0053 48.3543 20.7895 48.3225L17.6103 47.818C18.5368 47.5928 19.4664 47.4468 20.4373 47.3802C20.6499 47.3643 20.7324 47.0153 20.4913 46.9804C19.8472 46.8884 19.2031 46.7964 18.559 46.7044C19.2126 46.6028 19.863 46.5013 20.5167 46.3998C20.7705 46.3617 20.688 45.9873 20.4596 45.9746C19.5902 45.9175 18.7494 45.8064 17.9085 45.6319C18.5209 45.4955 19.1333 45.359 19.7456 45.2226C19.9741 45.1718 19.917 44.826 19.6917 44.8228C18.6573 44.8101 17.6515 44.6927 16.6552 44.477C17.5119 44.3945 18.3686 44.3532 19.238 44.3627C19.4633 44.3627 19.5235 44.0042 19.2919 43.9598C18.3972 43.7821 17.5024 43.6108 16.6076 43.4394C17.2898 43.414 17.9752 43.3887 18.6573 43.3601C18.9207 43.3506 18.9112 42.9825 18.6573 42.9571C17.3374 42.827 16.0524 42.5764 14.7832 42.2242C15.5574 42.1576 16.3348 42.0909 17.109 42.0243C17.3279 42.0053 17.4167 41.6562 17.1661 41.6086C15.6399 41.3326 14.1391 40.9772 12.6478 40.5521C13.4062 40.4283 14.1581 40.368 14.926 40.3776C15.2401 40.3998 15.5542 40.4188 15.8779 40.4188C16.1539 40.4188 16.1476 40.0127 15.8779 39.9936C15.6304 39.9778 15.3829 39.9682 15.1354 39.9651C13.9614 39.8921 12.8223 39.689 11.7055 39.34C12.7081 39.2702 13.7012 39.2765 14.7166 39.3622C14.9482 39.3813 14.9926 39.0132 14.7705 38.9593C13.641 38.6832 12.5114 38.4135 11.3787 38.1438C12.0799 38.0867 12.7779 38.0804 13.4887 38.1311C13.7044 38.147 13.7552 37.7885 13.5394 37.7504C12.8223 37.6203 12.1053 37.487 11.3882 37.3569C12.0799 37.2903 12.7716 37.2268 13.4664 37.1602C13.7393 37.1348 13.7393 36.7604 13.4664 36.735C12.3813 36.6335 11.293 36.5669 10.2079 36.532C10.0429 36.3575 9.78587 36.3257 9.54155 36.4812C9.52569 36.4907 9.50982 36.5003 9.49078 36.5098C7.50771 36.4749 5.52464 36.5605 3.54791 36.7795C3.53205 36.7255 3.51618 36.6684 3.49715 36.6145C3.50032 36.6145 3.50349 36.6145 3.50666 36.6145C6.12432 36.4178 8.74198 36.1956 11.3565 35.9735C11.5564 35.9577 11.6388 35.6277 11.4072 35.5928C10.3951 35.431 9.38291 35.285 8.36757 35.1454C9.28772 35.0122 10.211 34.8821 11.1312 34.7456C11.3374 34.7139 11.2613 34.4252 11.0868 34.4093C10.9123 34.3903 10.7377 34.3712 10.5632 34.3522C10.5537 34.276 10.5029 34.2094 10.4046 34.2126C10.1317 34.2221 9.86202 34.238 9.58914 34.2475C8.08201 34.0857 6.57805 33.9207 5.07091 33.7525C7.32051 33.559 9.57328 33.4765 11.8356 33.5114C12.0799 33.5114 12.0799 33.137 11.8356 33.1338C9.73193 33.1179 7.63463 33.01 5.54368 32.8101C6.73352 32.7848 7.92336 32.7594 9.11638 32.7372C9.57963 32.7372 10.0429 32.7308 10.5093 32.7086C10.7758 32.6959 10.779 32.2834 10.5093 32.2898L9.33531 32.3183C7.50771 32.3279 5.69915 32.1724 3.90011 31.8488C5.91491 31.7155 7.92971 31.5854 9.94451 31.4521C10.1825 31.4363 10.2745 31.046 10.0048 31.0048C8.11374 30.7192 6.22268 30.4336 4.33162 30.1512C6.26076 29.9767 8.19306 29.8022 10.1222 29.6309C10.4014 29.6055 10.4109 29.1835 10.1222 29.1867C8.84034 29.2057 7.56165 29.1803 6.28614 29.1264C7.61242 29.101 8.9387 29.0756 10.2618 29.0502C10.5569 29.0439 10.5537 28.6124 10.2618 28.5933C8.20575 28.4537 6.16239 28.2189 4.13173 27.8921C5.77847 27.8731 7.42204 27.8572 9.06879 27.8382C9.37021 27.835 9.37339 27.3749 9.06879 27.3686C6.43844 27.3178 3.84299 27.0069 1.2888 26.4167C3.256 26.1883 5.22321 26.201 7.18725 26.4262C7.71078 26.4992 8.23114 26.5754 8.75467 26.6483C9.03071 26.6864 9.15763 26.2676 8.87207 26.22C8.3993 26.1407 7.92971 26.0772 7.45695 26.0233C6.18143 25.8456 4.90592 25.6647 3.63041 25.4871C5.50877 25.4744 7.3808 25.5759 9.25916 25.7758C9.51617 25.8043 9.57328 25.3792 9.31945 25.3221C8.84034 25.2174 8.36123 25.1127 7.88212 25.0048C8.53574 24.9572 9.18936 24.9128 9.84298 24.8652C10.1063 24.8461 10.1539 24.5003 9.90326 24.4114C9.45271 24.2496 9.00216 24.1195 8.54843 24.0053C8.75149 23.9799 8.95456 23.9482 9.1608 23.9101C9.35435 23.8752 9.37973 23.5801 9.21474 23.4913C8.81813 23.2787 8.41834 23.0725 8.01855 22.8662C8.40247 22.7996 8.78957 22.733 9.17349 22.6695C9.37339 22.6378 9.38925 22.3395 9.22743 22.2475C8.80543 22.0095 8.39613 21.8223 7.97413 21.6669C8.37709 21.5844 8.77688 21.505 9.17984 21.4226C9.3607 21.3845 9.43684 21.118 9.29089 20.9974C9.00533 20.7594 8.74198 20.5754 8.46276 20.4358C8.80543 20.3882 9.14811 20.3406 9.49078 20.293C9.67481 20.2676 9.74144 19.982 9.60184 19.8678C9.40829 19.706 9.2306 19.5918 9.04023 19.5061C9.18301 19.4046 9.32262 19.303 9.4654 19.2015C9.60818 19.1 9.63991 18.8715 9.4654 18.7763C9.19253 18.6272 8.92283 18.4717 8.64996 18.3226C9.03706 18.2338 9.42098 18.1449 9.80808 18.0529C9.9699 18.0148 10.0556 17.8054 9.96355 17.669C9.98259 17.1582 9.99845 16.6441 10.0175 16.1333C10.6521 15.3655 11.3723 14.6611 12.1782 14.036C12.3654 13.89 12.4352 13.5347 12.248 13.357C10.7885 11.9577 9.33214 10.5617 7.87577 9.1624C11.6198 5.2375 16.6425 2.88955 22.027 2.37553C22.6203 3.96199 23.2073 5.55162 23.8578 7.11587C23.8736 7.15395 23.8927 7.1825 23.9117 7.21106C23.8736 7.31894 23.8863 7.42999 23.9815 7.54104C24.1179 7.70286 24.2417 7.70603 24.4289 7.63306C24.4892 7.61085 24.5114 7.54739 24.5082 7.49027C24.5082 7.46172 24.505 7.42999 24.5019 7.40143C24.5019 7.39826 24.5019 7.39509 24.5019 7.39191C25.1777 7.22058 26.9862 6.5035 27.1322 6.44956C28.0904 6.08467 29.0677 5.7769 30.0767 5.59287C31.8662 5.26606 33.7858 5.34538 35.4579 6.11958C36.2829 6.50033 37.2538 7.48393 37.9677 6.41148C38.4119 5.742 38.6308 4.80281 38.9037 4.04449C39.2686 3.03233 39.5986 2.01065 39.9064 0.982623C39.9413 0.868398 39.9349 0.763693 39.9064 0.671678C42.6414 1.58865 44.8942 3.90488 47.1311 5.63412C47.7625 6.11958 48.3907 6.6082 49.0221 7.09366C49.4188 7.39826 50.5674 8.00746 50.5198 8.5183C50.5007 8.72137 49.771 9.467 49.6409 9.63199C49.3966 9.93976 49.1522 10.2507 48.9079 10.5585L47.2929 12.5987C47.1152 12.8208 47.2104 13.1095 47.4008 13.2808C48.9428 14.6896 50.193 16.3713 51.0687 18.2718C51.9317 20.147 52.1284 22.0159 52.5314 24.0021C52.5949 24.3163 52.9534 24.4305 53.1818 24.3036C53.6609 24.6304 54.3844 24.44 54.946 24.4083C56.066 24.3448 57.1829 24.2591 58.3029 24.1735C57.5446 26.899 57.3384 29.7134 57.3003 32.5436L57.313 32.5278Z" fill="var(--fill-0, #3C3C3B)"/>
<path id="Vector_2" d="M35.8516 32.7913C38.5391 30.9796 40.9727 26.033 38.3392 23.2599C38.3392 23.2567 38.3328 23.2535 38.3297 23.2504C37.5777 20.4455 33.3196 19.0494 30.7369 19.3794C27.767 19.7601 25.0986 21.9875 24.3942 24.9193C23.6962 27.832 24.9114 31.1477 27.3958 32.8484C29.8865 34.5555 33.3736 34.4666 35.8548 32.7913H35.8516ZM33.7924 32.6263C30.6956 33.7337 27.2403 32.3947 25.8696 29.3741C24.4989 26.3535 25.5523 22.8474 28.4682 21.2038C29.7628 20.4741 31.2921 20.1568 32.7612 20.4043C34.3762 20.6771 36.7813 21.6258 37.6697 23.1425C37.381 23.2853 37.2064 23.6406 37.4888 23.9421C40.1287 26.7215 36.6702 31.5951 33.7892 32.6231L33.7924 32.6263Z" fill="var(--fill-0, #3C3C3B)"/>
</g>
</svg>
