<svg preserveAspectRatio="none" width="100%" height="100%" overflow="visible" style="display: block;" viewBox="0 0 17.7732 88.599" fill="none" xmlns="http://www.w3.org/2000/svg">
<g id="Objects" clip-path="url(#clip0_0_185)">
<path id="Vector" d="M16.615 72.1001C16.7631 72.0101 16.9082 71.9085 17.0417 71.7895C18.1012 70.8345 18.0838 68.7271 16.5164 68.3324C16.5628 68.2569 16.6092 68.1785 16.6499 68.0973C16.7399 67.9202 16.676 67.7518 16.557 67.656C17.0301 58.7622 17.2246 49.848 17.3291 40.9425C17.3814 36.5246 17.3959 32.1038 17.3668 27.6859C17.3378 23.3899 17.3959 19.0504 17.0679 14.7602C17.2014 14.6876 17.2943 14.5425 17.2449 14.348C16.5367 11.4772 15.5178 8.65292 14.4409 5.90406C13.9504 4.653 13.4337 3.41065 12.8909 2.1799C12.5513 1.41069 12.1275 0.252514 11.1841 0.0290059C10.3917 -0.156767 9.95916 0.481827 9.61954 1.07688C8.87065 2.39761 8.14207 3.73285 7.41059 5.06228C6.64428 6.45848 5.86926 7.84887 5.11746 9.25087C4.77494 9.88947 4.42662 10.5252 4.09861 11.1696C3.95638 11.4511 3.73578 11.7733 3.66031 12.1042C3.56742 12.0288 3.40777 12.0607 3.40487 12.2174C3.40487 12.3539 3.40487 12.4903 3.40197 12.6296C3.30037 12.6586 3.222 12.766 3.28876 12.8967C3.32069 12.9605 3.36133 13.0186 3.39906 13.0795C3.35842 17.4713 3.64869 21.8718 3.69804 26.2636C3.75029 30.8005 3.70965 35.3403 3.57032 39.8743C3.43099 44.4083 3.19878 48.9424 2.86787 53.4677C2.69661 55.8043 2.50213 58.1381 2.28152 60.469C2.06382 62.7534 1.54714 65.1655 1.62551 67.4558C1.62842 67.5486 1.67776 67.6154 1.74162 67.6589C1.56166 67.6735 1.46296 67.9289 1.64874 68.0624C3.99121 69.7489 6.87069 70.5587 9.74726 70.5558C11.6108 70.5558 14.5686 70.3672 16.0577 68.8984C16.1013 68.971 16.1738 69.0319 16.2812 69.0551C17.3117 69.2961 17.1259 70.5733 16.5686 71.1509C15.9184 71.8243 14.8879 71.9375 13.9997 72.042C12.2436 72.2452 10.4729 72.3816 8.70519 72.4339C7.01873 72.4861 5.12036 72.6167 3.48324 72.1175C1.40491 71.4818 0.182874 69.4905 1.55875 67.5574C1.65164 67.4267 1.46296 67.2293 1.33234 67.3309C0.00580955 68.3498 4.08832e-06 69.9318 0.833078 71.1538C-0.420887 72.0594 -0.13352 73.8707 0.870813 74.9099C0.93177 74.9737 0.998532 75.026 1.06239 75.084C0.954992 75.0173 0.795343 75.0202 0.699554 75.1566C-0.278655 76.518 0.069669 78.367 1.43394 79.2668C1.33815 79.2494 1.22494 79.2959 1.19882 79.3975C0.835981 80.8024 0.882424 82.3437 0.896938 83.7863C0.908548 84.8255 0.661819 86.4771 1.21914 87.4147C1.64583 88.1317 2.50793 88.2275 3.26264 88.271C4.86202 88.3639 6.47012 88.3755 8.07241 88.4277C9.67469 88.48 11.2799 88.538 12.8822 88.5845C13.782 88.6106 14.827 88.6919 15.4424 87.8936C16.0635 87.0867 15.8894 85.9488 15.8139 85.0113C15.6833 83.3887 15.5527 81.7661 15.4046 80.1434C15.3959 80.0506 15.3611 79.9751 15.3117 79.9141C15.663 79.8125 15.991 79.6616 16.2667 79.4265C17.4946 78.3699 17.1375 76.1087 15.483 75.7633C15.5323 75.743 15.5788 75.7255 15.6281 75.7023C16.8734 75.1131 18.1448 73.0463 16.615 72.1001ZM11.8546 3.3642C12.0926 3.62254 12.4729 3.23939 12.2378 2.98105C12.0607 2.78367 11.8807 2.59209 11.7008 2.39761C11.7153 2.40922 11.7298 2.41793 11.7443 2.43244C11.9069 2.56887 12.1101 2.4963 12.1826 2.34826C12.8415 3.65447 13.3582 5.0855 13.8546 6.4817C13.8168 6.45558 13.7762 6.43236 13.7385 6.40623C13.5353 6.27561 13.2537 6.44687 13.2595 6.68199C13.2624 6.86776 13.1289 7.00419 12.9228 7.10288C12.9228 7.06224 12.9141 7.0216 12.8822 6.97806C12.8706 6.96065 12.8561 6.94613 12.8444 6.92872C12.8444 6.92872 12.8415 6.92581 12.8386 6.92291C12.4032 6.35689 11.9388 5.81698 11.4599 5.2916C11.9272 5.63992 12.3916 5.99115 12.8531 6.34527C13.0941 6.52814 13.3611 6.14499 13.1666 5.9389C12.4845 5.22193 11.7995 4.50787 11.1144 3.7938C11.6776 4.15954 12.2058 4.57173 12.6993 5.04196C12.9402 5.27418 13.2973 4.91715 13.065 4.67622C12.3945 3.96797 11.695 3.28873 10.9809 2.62692C11.2944 2.82721 11.5847 3.06813 11.8575 3.3642H11.8546ZM12.4729 7.24511C11.8546 7.37863 11.0186 7.37573 10.5368 7.35832C10.5339 7.35251 10.531 7.34671 10.5281 7.338C10.1217 6.82132 9.70953 6.30754 9.29444 5.79666C10.0375 6.29012 10.7719 6.79519 11.5063 7.29736C11.7211 7.4454 11.9736 7.11449 11.7821 6.93742C11.2567 6.44977 10.7487 5.95051 10.2494 5.43963C11.0186 6.00276 11.7617 6.60071 12.4729 7.24511ZM9.34088 6.93162C9.18994 6.77487 9.04191 6.61523 8.89677 6.45558C9.23058 6.71972 9.54698 7.00999 9.85176 7.31478C9.67179 7.29736 9.49182 7.27123 9.31186 7.24221C9.40474 7.17545 9.44538 7.04192 9.34088 6.93452V6.93162ZM9.84305 2.32504C10.023 2.48759 10.203 2.65014 10.38 2.81559C10.2291 2.73142 10.0811 2.64724 9.92142 2.56887C9.84886 2.53113 9.77629 2.53694 9.71243 2.56016C9.75597 2.48178 9.79661 2.40341 9.84015 2.32504H9.84305ZM9.56149 2.84462C9.5702 2.88526 9.58761 2.92299 9.62245 2.96073C10.0027 3.3642 10.3859 3.76478 10.7661 4.16535C10.3046 3.84025 9.83725 3.51805 9.3612 3.21326C9.42797 3.09135 9.49473 2.96944 9.56149 2.84462ZM9.10286 3.6864C9.60213 4.13922 10.0811 4.60946 10.5455 5.09131C10.023 4.70525 9.49182 4.33371 8.94321 3.97667C8.99546 3.88088 9.04771 3.7851 9.09996 3.68931L9.10286 3.6864ZM8.68487 4.44691C9.01578 4.81555 9.3525 5.17839 9.69501 5.53542C9.30315 5.27418 8.91129 5.01294 8.51942 4.74589C8.57457 4.6472 8.62972 4.5456 8.68487 4.44691ZM8.24076 5.25096C8.34236 5.37868 8.44395 5.50639 8.54845 5.63702C8.42363 5.54994 8.29301 5.47156 8.16529 5.39029C8.19142 5.34384 8.21464 5.2974 8.24076 5.25386V5.25096ZM7.87212 5.92729C7.99694 6.08693 8.12465 6.24078 8.25528 6.39462C8.09563 6.30173 7.93598 6.20304 7.77923 6.09855C7.81116 6.04049 7.84309 5.98534 7.87212 5.92729ZM7.59636 6.42945C7.59636 6.42945 7.61088 6.40333 7.61958 6.38881C8.02016 6.68489 8.43234 6.93742 8.88226 7.16093C8.81259 7.14642 8.74583 7.13481 8.67617 7.11739C8.41202 7.05644 7.8547 6.78068 7.45994 6.68199C7.50638 6.59781 7.55282 6.51363 7.59927 6.42945H7.59636ZM4.02024 12.7109C4.05798 12.7022 4.09281 12.6964 4.13054 12.6877C4.1973 12.6732 4.25826 12.6093 4.27568 12.5425C4.28439 12.5077 4.29309 12.4729 4.3018 12.438C4.32793 12.3306 4.23214 12.2407 4.12764 12.2639C4.75172 12.1245 5.47159 10.2552 5.8083 9.65725C6.25822 8.85901 6.69943 8.05787 7.14064 7.25672C8.59489 8.42361 13.5266 8.78354 14.0491 7.02451C14.1478 7.30316 14.2464 7.58182 14.348 7.85468C15.0882 9.88076 15.7036 11.9417 16.3509 13.9939C14.9344 14.7776 13.2276 14.647 11.9969 13.544C11.7733 13.3437 11.3757 13.4075 11.3002 13.7268C10.8242 15.7239 8.08402 15.1927 8.32494 13.1782C8.36558 12.8299 7.846 12.6325 7.62539 12.888C6.65879 14.0171 4.80977 14.0026 3.81125 12.9402C3.79963 12.8473 3.79093 12.7544 3.77932 12.6615C3.84318 12.7051 3.92445 12.7225 4.02024 12.7051V12.7109ZM7.60217 66.6952C7.56443 66.6691 7.5267 66.6633 7.49187 66.6691C7.52089 66.0915 7.53831 65.5139 7.55282 64.9362C7.56153 64.9681 7.57604 65.0001 7.60217 65.0291C8.01725 65.4529 8.44395 65.8651 8.87355 66.2686C8.74293 66.196 8.61521 66.1205 8.48169 66.0509C8.2872 65.9493 8.0637 66.2047 8.23786 66.3672C9.11447 67.1742 9.99109 67.9811 10.8677 68.7881C9.75887 68.1205 8.66746 67.4267 7.59927 66.6952H7.60217ZM9.0361 68.5704C8.54264 68.3324 8.04918 68.0943 7.55573 67.8563C7.50638 67.8331 7.45703 67.8302 7.41349 67.8418C7.43671 67.5806 7.45413 67.3193 7.46864 67.0581C7.9621 67.598 8.48459 68.0973 9.0332 68.5675L9.0361 68.5704ZM12.2871 15.0389C12.2465 14.9692 12.2058 14.8995 12.1652 14.8299C12.0723 14.6731 11.9069 14.6644 11.7821 14.7312C11.8227 14.6615 11.8691 14.5976 11.904 14.5193C12.0317 14.6064 12.1623 14.6818 12.2958 14.7544C12.2929 14.8473 12.29 14.9431 12.2871 15.0359V15.0389ZM11.663 15.123C11.7066 15.1956 11.7472 15.2653 11.7908 15.3378C11.6979 15.3117 11.605 15.2827 11.5121 15.2566C11.4453 15.2362 11.3757 15.2507 11.3147 15.2798C11.4279 15.184 11.5295 15.0795 11.6253 14.9576C11.6195 15.0098 11.6253 15.065 11.6601 15.123H11.663ZM11.187 15.6803C11.2944 15.8342 11.4018 15.988 11.5092 16.1419C11.2509 16.0142 10.9838 15.8981 10.7081 15.7907C10.4265 15.6833 10.2465 16.078 10.4294 16.2696C10.5571 16.4031 10.6877 16.5366 10.8184 16.6702C10.3452 16.3915 9.88079 16.0983 9.43087 15.7848C10.0404 15.8806 10.6848 15.7587 11.1986 15.3814C11.1348 15.4685 11.1173 15.5817 11.187 15.6833V15.6803ZM12.4119 40.3213C11.4134 39.436 10.412 38.5536 9.41055 37.6712C10.3365 38.1617 11.2392 38.69 12.1246 39.259C12.2465 39.3373 12.3829 39.2386 12.4119 39.1225C12.4119 39.5231 12.4119 39.9237 12.4119 40.3242V40.3213ZM8.08402 48.0193C8.62392 48.5737 9.16963 49.1194 9.72985 49.6535C9.30605 49.34 8.88806 49.0149 8.47878 48.6753C8.32784 48.5505 8.15949 48.6027 8.07241 48.7188C8.07821 48.4837 8.08111 48.2515 8.08402 48.0164V48.0193ZM12.113 17.9909C12.1507 18.0083 12.1884 18.017 12.2262 18.0199C12.2262 18.3189 12.2262 18.6179 12.2262 18.9169C11.6834 18.3015 11.126 17.7035 10.5542 17.1172C11.0622 17.4249 11.5789 17.7209 12.1159 17.988L12.113 17.9909ZM12.2494 21.8573C12.2494 21.8573 12.2494 21.8515 12.2436 21.8515C11.1522 20.9487 10.1682 19.9647 9.27993 18.8878C10.084 19.5438 10.8851 20.1998 11.6892 20.8559C11.9794 21.0939 12.3249 20.7397 12.0955 20.4495C11.4337 19.6048 10.7255 18.8124 9.98528 18.0519C10.7545 18.5859 11.4947 19.1607 12.2058 19.7819C12.2117 19.7877 12.2175 19.7877 12.2204 19.7906C12.2262 20.4814 12.2349 21.1693 12.2465 21.8602L12.2494 21.8573ZM12.4119 34.7917C12.3974 34.7685 12.38 34.7482 12.3539 34.7278C11.277 33.8977 10.2407 33.0211 9.23929 32.1067C10.1333 32.635 11.0274 33.1662 11.9214 33.6945C12.1536 33.8309 12.3887 33.5174 12.2058 33.3258C11.396 32.4783 10.5861 31.6336 9.77339 30.786C10.5832 31.3027 11.3902 31.8193 12.2 32.3331C12.2697 32.3767 12.3365 32.3738 12.3974 32.3476C12.4032 33.1604 12.4119 33.976 12.4148 34.7888L12.4119 34.7917ZM8.16819 37.1487C9.0332 37.9237 9.90401 38.6958 10.7719 39.468C9.90691 39.0238 9.039 38.5826 8.1711 38.1414C8.1711 37.8105 8.1711 37.4796 8.16819 37.1487ZM8.10434 29.6946C8.10434 29.6946 8.11595 29.7207 8.12756 29.7323C9.01288 30.6612 9.8982 31.59 10.7835 32.5189C9.8924 32.0196 9.00417 31.5146 8.12175 30.9979C8.11595 30.5625 8.11014 30.13 8.10434 29.6946ZM8.40622 29.3724C8.2814 29.294 8.15949 29.3579 8.10143 29.4595C8.09563 29.0647 8.09272 28.667 8.08402 28.2722C8.91999 29.1053 9.75887 29.9384 10.5978 30.7715C9.86627 30.307 9.1377 29.8397 8.40622 29.3753V29.3724ZM12.3887 31.889C11.6572 31.1488 10.917 30.4173 10.1769 29.6859C10.8067 30.0719 11.4511 30.4348 12.1188 30.7628C12.2117 30.8092 12.3074 30.7947 12.38 30.7453C12.3829 31.1256 12.3858 31.5088 12.3887 31.889ZM8.31333 27.8456C8.23786 27.7875 8.15078 27.7817 8.07821 27.8078C8.07531 27.6424 8.07531 27.4769 8.07241 27.3115C8.0666 26.9689 8.06079 26.6235 8.05499 26.281C8.99256 27.4218 9.96206 28.5306 10.9751 29.6017C10.0491 29.0821 9.15801 28.5074 8.31043 27.8485L8.31333 27.8456ZM8.24076 25.7904C8.16819 25.744 8.10143 25.744 8.04628 25.7672C8.04338 25.4653 8.03757 25.1664 8.03467 24.8645C8.91129 25.6105 9.73565 26.4087 10.5194 27.2505C9.75887 26.7686 8.99837 26.2839 8.24366 25.7904H8.24076ZM8.04918 24.281C8.04918 24.281 8.03467 24.2752 8.02596 24.2723C8.02016 23.895 8.01435 23.5205 8.00855 23.1432C8.99837 23.9821 9.92142 24.9109 10.7835 25.8891C9.86918 25.3579 8.95483 24.8238 8.04918 24.2781V24.281ZM8.15368 22.6817C8.10143 22.6613 8.04918 22.6671 8.00274 22.6875C7.99694 22.2637 7.98532 21.8399 7.97662 21.419C8.78357 22.1301 9.54698 22.8761 10.2843 23.6541C9.60793 23.2738 8.89967 22.9516 8.15658 22.6817H8.15368ZM8.25237 20.9894C8.15078 20.9255 8.04338 20.9545 7.96791 21.0213C7.9592 20.7194 7.95049 20.4176 7.93888 20.1157C8.50781 20.7194 9.09125 21.3058 9.69211 21.8747C9.21317 21.5815 8.73132 21.2855 8.25237 20.9894ZM8.18561 19.6687C8.07241 19.6251 7.98242 19.6687 7.92437 19.747C7.90115 19.0881 7.86922 18.4263 7.83148 17.7674C8.48749 18.7369 9.20736 19.6454 10.0027 20.4872C9.41345 20.1853 8.80969 19.9125 8.18561 19.6658V19.6687ZM9.7908 18.6324C9.21897 18.1825 8.64424 17.7297 8.07241 17.2797C7.99113 17.2159 7.88663 17.213 7.79955 17.2478C7.78504 17.0475 7.76762 16.8472 7.75311 16.6469C8.46717 17.2768 9.1464 17.9415 9.7908 18.6324ZM12.1362 40.6784C12.2349 40.7277 12.3423 40.6929 12.4119 40.6261C12.4119 40.9164 12.4119 41.2096 12.4119 41.4998C12.4061 41.494 12.4032 41.4853 12.3974 41.4795C11.6253 40.8758 10.8532 40.2691 10.0811 39.6624C10.7661 40.002 11.4511 40.3417 12.1391 40.6784H12.1362ZM8.16529 36.5624C8.16529 36.3127 8.16529 36.0602 8.16529 35.8106C8.90838 36.4608 9.65438 37.1081 10.3975 37.7554C9.66599 37.3374 8.9229 36.9397 8.16529 36.5624ZM8.15949 34.3011C8.91129 35.1632 9.71823 35.9615 10.5774 36.7046C9.75016 36.2547 8.94612 35.767 8.16239 35.2329C8.16239 34.9223 8.16239 34.6117 8.15949 34.3011ZM8.27269 33.8454C8.23205 33.8193 8.19432 33.8164 8.15658 33.8164C8.15078 33.0849 8.13917 32.3505 8.13046 31.6191C8.81259 32.2838 9.51505 32.9253 10.2349 33.5435C9.83724 33.32 9.44248 33.0994 9.04481 32.8759C8.83001 32.754 8.61231 33.0385 8.78066 33.2155C9.53827 34.0109 10.3046 34.8033 11.068 35.5929C10.1391 35.0007 9.20736 34.4173 8.26979 33.8425L8.27269 33.8454ZM10.0666 33.9412C10.7574 34.3273 11.4482 34.7104 12.1391 35.0965C12.2581 35.1633 12.3626 35.1168 12.4119 35.0326C12.4119 35.4942 12.4119 35.9557 12.4119 36.4172C11.634 35.587 10.8503 34.7656 10.0666 33.9412ZM9.36411 27.0763C10.1711 27.6017 10.978 28.13 11.785 28.6583C12.0433 28.8267 12.2668 28.4667 12.0926 28.2577C11.4192 27.4421 10.7022 26.6845 9.94755 25.9617C10.5803 26.3507 11.2102 26.7396 11.843 27.1257C12.1188 27.294 12.3452 26.9283 12.1681 26.7048C11.2915 25.6134 10.351 24.6352 9.33798 23.7005C10.142 24.1011 10.8996 24.5771 11.6311 25.1315C11.872 25.3144 12.1072 24.94 11.9359 24.7368C11.367 24.0633 10.7748 23.4131 10.1594 22.7891C10.8503 23.2274 11.5411 23.6657 12.232 24.1011C12.2523 24.1127 12.2697 24.1156 12.29 24.1214C12.3191 25.477 12.3452 26.8296 12.3597 28.1823C12.3684 28.8934 12.3684 29.6046 12.3742 30.3157C11.3437 29.2592 10.3365 28.1794 9.3612 27.0734L9.36411 27.0763ZM9.27993 20.7165C10.2001 21.1577 11.0738 21.6744 11.9185 22.2724C12.0404 22.3566 12.1739 22.3043 12.2552 22.2056C12.261 22.6033 12.2697 23.001 12.2755 23.3986C11.2422 22.5394 10.2378 21.6512 9.27702 20.7165H9.27993ZM8.26979 15.5265C8.94902 16.1767 9.59632 16.853 10.2291 17.541C9.53246 17.0678 8.8155 16.6237 8.07241 16.2173C7.94759 16.1477 7.80826 16.1999 7.72989 16.2928C7.66893 15.5381 7.59927 14.7863 7.50638 14.0374C7.51509 14.0316 7.5238 14.0287 7.5325 14.0229C7.6341 14.5309 7.89244 14.9402 8.23786 15.2391C8.1798 15.3204 8.1711 15.4307 8.27269 15.5236L8.26979 15.5265ZM7.86051 64.6924C7.72989 64.614 7.59636 64.6982 7.55573 64.8114C7.57024 64.2686 7.58475 63.7287 7.60507 63.1946C8.64424 64.3208 9.71824 65.4094 10.83 66.4601C9.84015 65.8709 8.85323 65.2845 7.86341 64.6953L7.86051 64.6924ZM11.8865 67.5864C11.8865 67.8186 11.8865 68.0508 11.8865 68.283C11.6485 68.0914 11.4105 67.9057 11.1667 67.7257C10.4845 67.1655 9.82563 66.5791 9.18414 65.9754C10.084 66.5124 10.9867 67.0494 11.8865 67.5864ZM7.6399 62.2832C8.22625 62.7998 8.8155 63.3107 9.40184 63.8245C8.80969 63.4123 8.21754 63.003 7.62539 62.5908C7.6312 62.4892 7.6341 62.3847 7.637 62.2832H7.6399ZM7.66603 61.7084C7.67764 61.4646 7.68635 61.2208 7.69796 60.9769C8.54264 61.7607 9.39604 62.5357 10.2552 63.3078C9.39313 62.7766 8.52813 62.2454 7.66603 61.7084ZM7.75311 59.5749C8.69358 60.4864 9.63696 61.3949 10.5832 62.3006C9.61954 61.6939 8.65585 61.0814 7.71537 60.4428C7.72698 60.1526 7.7415 59.8623 7.75311 59.5749ZM7.77633 58.9944C7.78794 58.707 7.79665 58.4168 7.80826 58.1294C8.67617 59.0321 9.54407 59.9349 10.412 60.8347C9.54988 60.228 8.68487 59.6243 7.82568 59.0147C7.81116 59.0031 7.79375 59.0002 7.77923 58.9944H7.77633ZM7.83148 57.4211C7.83729 57.2876 7.84019 57.1541 7.846 57.0206C8.24657 57.4647 8.65875 57.8943 9.08254 58.3065C8.66165 58.0162 8.24366 57.723 7.83148 57.4211ZM7.87792 56.1062C7.88083 55.9727 7.88663 55.8392 7.89244 55.7085C7.89244 55.6737 7.89244 55.6389 7.89534 55.604C8.42944 56.2194 8.97514 56.8174 9.54988 57.3892C8.98095 56.9799 8.42363 56.5503 7.87792 56.1062ZM7.94178 53.993C8.75164 54.7942 9.56149 55.5953 10.3684 56.3965C9.55278 55.8624 8.73422 55.3283 7.91856 54.7942C7.92727 54.5271 7.93308 54.2601 7.94178 53.9901V53.993ZM7.99113 52.324C8.58909 53.0671 9.21607 53.7812 9.87208 54.4633C9.23639 54.0569 8.6007 53.6505 7.9621 53.2441C7.97081 52.9365 7.97952 52.6288 7.98823 52.324H7.99113ZM8.02016 50.9917C8.63553 51.6273 9.2509 52.263 9.86918 52.8987C9.2509 52.4401 8.62972 51.9844 8.00855 51.5258C8.01145 51.3487 8.01725 51.1716 8.02016 50.9917ZM8.25237 50.4111C8.1769 50.3647 8.10143 50.3618 8.03757 50.3792C8.04918 49.9264 8.05789 49.4706 8.0695 49.0178C8.07821 49.0323 8.08402 49.0469 8.09563 49.0614C8.88806 50.0018 9.68631 50.9365 10.4874 51.8712C9.76178 51.3574 9.02159 50.8697 8.25818 50.4082L8.25237 50.4111ZM8.15078 47.3139C8.13336 47.3023 8.11595 47.2994 8.09853 47.2907C8.10433 47.0034 8.10724 46.716 8.11304 46.4286C8.78357 47.1717 9.45409 47.9119 10.1246 48.6521C9.4657 48.2051 8.80679 47.761 8.15078 47.3139ZM8.12175 45.6826C8.12465 45.4127 8.13046 45.1427 8.13336 44.8728C8.76905 45.5636 9.41345 46.2457 10.0549 46.9308C9.44538 46.5273 8.83581 46.1267 8.22625 45.7233C8.19142 45.7 8.15658 45.6855 8.12175 45.6797V45.6826ZM8.3888 44.3096C8.30172 44.2574 8.21464 44.2603 8.14207 44.2922C8.14788 43.8684 8.15078 43.4446 8.15368 43.0209C8.61231 43.7436 9.10577 44.4316 9.63696 45.0847C9.22768 44.8176 8.80969 44.5564 8.3888 44.3067V44.3096ZM8.15658 42.5158C8.15658 42.3939 8.15658 42.2749 8.15949 42.1529C8.25818 42.2603 8.35687 42.3736 8.45846 42.481C8.35687 42.4374 8.24076 42.4577 8.15658 42.5158ZM8.16819 41.1544C8.16819 40.8496 8.16819 40.5448 8.16819 40.2372C8.73132 40.8583 9.30315 41.465 9.8953 42.0543C9.32927 41.7379 8.75454 41.436 8.16529 41.1515L8.16819 41.1544ZM8.174 38.809C9.2509 39.6218 10.3307 40.4316 11.4134 41.2386C10.3336 40.5681 9.2538 39.8946 8.1769 39.2241C8.1769 39.0848 8.1769 38.9484 8.1769 38.809H8.174ZM12.4119 39.0442C12.4032 39.0122 12.3916 38.9803 12.3597 38.9542C11.5818 38.2662 10.8038 37.5812 10.0259 36.8933C10.7022 37.2706 11.3931 37.6218 12.1013 37.944C12.3481 38.0572 12.5309 37.7408 12.3132 37.5812C11.2073 36.7655 10.1914 35.8715 9.24219 34.8933C10.2668 35.5174 11.277 36.1705 12.2755 36.841C12.322 36.8729 12.3684 36.8787 12.409 36.87C12.409 37.5957 12.409 38.3214 12.409 39.0471L12.4119 39.0442ZM6.72846 69.4499C6.72846 69.4499 6.73426 69.4702 6.73716 69.4818C5.0565 69.1335 3.44551 68.5123 1.90998 67.7054C2.00577 67.6996 2.09865 67.6473 2.13058 67.5254C2.69951 65.4268 2.71112 63.0698 2.92012 60.9073C3.14363 58.5764 3.34391 56.2426 3.51517 53.906C3.85479 49.3081 4.09861 44.7015 4.24084 40.0949C4.38308 35.4855 4.42952 30.876 4.37437 26.2636C4.32502 22.0837 4.31922 17.8487 3.88962 13.6804C4.73721 14.4612 5.99117 14.6644 7.05646 14.2522C6.90262 18.7369 7.26836 23.268 7.35834 27.7498C7.45123 32.336 7.48316 36.9194 7.46574 41.5056C7.44833 46.0919 7.37286 50.6753 7.24223 55.2615C7.23933 55.3951 7.23353 55.5286 7.23062 55.6621C7.03614 55.6679 6.88811 55.903 7.04775 56.0975C7.1 56.1614 7.15515 56.2252 7.2103 56.2891C7.14935 58.3123 7.07968 60.3325 6.9955 62.3557C6.89972 64.6924 6.58332 67.1132 6.72555 69.447L6.72846 69.4499ZM7.18708 69.5689C7.19289 69.5515 7.2045 69.537 7.2074 69.5167C7.21611 69.4702 7.21901 69.4267 7.22772 69.3802L7.7473 69.6502C7.56153 69.6241 7.37286 69.6008 7.18708 69.5689ZM7.41059 68.6081C7.38447 68.5994 7.36124 68.5936 7.33802 68.5965C7.35254 68.4775 7.36415 68.3585 7.37576 68.2424C7.59636 68.4514 7.81697 68.6633 8.03467 68.8723C7.83148 68.7794 7.62249 68.6923 7.41059 68.611V68.6081ZM8.59489 69.7402C8.58618 69.7111 8.57457 69.685 8.54845 69.6589C8.4962 69.6067 8.44105 69.5573 8.3859 69.5051C8.53974 69.5863 8.69358 69.6705 8.84743 69.7605C8.76325 69.7547 8.67907 69.746 8.59489 69.7402ZM9.51795 69.7924C9.51795 69.7431 9.50344 69.6908 9.45699 69.6502L8.52813 68.7678C9.18124 69.0784 9.83725 69.3919 10.4904 69.6995C10.7168 69.8069 10.8967 69.5051 10.6877 69.3628C10.0637 68.9332 9.48312 68.4746 8.9287 67.9811C9.85466 68.5762 10.7893 69.1567 11.7356 69.717C10.949 69.7953 10.1769 69.8069 9.51505 69.7895L9.51795 69.7924ZM9.86047 67.328C10.2088 67.5544 10.5513 67.7896 10.888 68.0363C11.2189 68.3091 11.5585 68.5733 11.8982 68.8374C11.9011 68.9739 11.9069 69.1074 11.9127 69.2438C11.2276 68.6052 10.5455 67.9666 9.86047 67.328ZM11.9011 66.8665C10.9374 65.9812 9.9998 65.0726 9.08835 64.1351C10.0346 64.794 10.9809 65.4529 11.9272 66.1118C11.9156 66.3643 11.9069 66.6169 11.9011 66.8694V66.8665ZM11.9562 65.479C11.1957 64.8085 10.4323 64.1409 9.66889 63.4733C10.441 63.9493 11.2131 64.4253 11.9823 64.9014C11.9736 65.093 11.9649 65.2845 11.9533 65.479H11.9562ZM12.0172 64.2773C11.2218 63.5574 10.4236 62.8405 9.62245 62.1264C10.4323 62.6547 11.2363 63.1888 12.0433 63.7142C12.0346 63.9 12.0259 64.0886 12.0172 64.2744V64.2773ZM12.0694 63.1365C11.367 62.4515 10.6674 61.7665 9.96496 61.0814C10.6732 61.5807 11.3844 62.0771 12.0897 62.5792C12.0839 62.765 12.0781 62.9508 12.0694 63.1365ZM12.1072 61.929C11.2538 61.0292 10.3975 60.1293 9.54117 59.2295C10.2959 59.7317 11.0651 60.2135 11.8488 60.6751C11.9649 60.7418 12.0665 60.7186 12.1362 60.6518C12.1246 61.0785 12.1188 61.5023 12.1072 61.929ZM12.1449 60.2716C12.1449 60.2716 12.1246 60.2426 12.1101 60.2309C11.1725 59.5256 10.293 58.7622 9.4628 57.9494C10.2639 58.5125 11.0883 59.0437 11.9388 59.543C12.0143 59.5865 12.0955 59.5807 12.1623 59.5459C12.1565 59.7868 12.1507 60.0278 12.1449 60.2687V60.2716ZM12.1739 59.0815C11.1057 58.1903 10.1072 57.2412 9.16092 56.231L12.1942 58.2136C12.1884 58.5038 12.1797 58.7912 12.1739 59.0815ZM12.2117 57.485C11.367 56.6461 10.5223 55.8072 9.6776 54.9713L11.9011 56.3965C12.0259 56.4749 12.1594 56.4255 12.2407 56.3297C12.232 56.7158 12.2233 57.1018 12.2146 57.4879L12.2117 57.485ZM12.2523 55.6911C12.2523 55.7956 12.2465 55.8972 12.2436 56.0017C12.2349 55.993 12.232 55.9843 12.2233 55.9756C11.2828 55.1483 10.4004 54.2688 9.56439 53.3457C10.4468 53.9959 11.3263 54.6462 12.2058 55.3022C12.2233 55.3138 12.2378 55.3167 12.2552 55.3254C12.2552 55.4473 12.2523 55.5721 12.2494 55.694L12.2523 55.6911ZM12.2697 54.591C11.5382 53.8276 10.8067 53.0642 10.0724 52.2979C10.8271 52.8291 11.5614 53.3893 12.2784 53.9814C12.2755 54.1846 12.2726 54.3878 12.2697 54.591ZM12.2929 53.0903C11.5789 52.2601 10.8619 51.43 10.1449 50.5998C10.83 51.0758 11.5324 51.5287 12.2494 51.9583C12.2697 51.9699 12.29 51.9728 12.3103 51.9786C12.3045 52.3472 12.2987 52.7188 12.2929 53.0874V53.0903ZM12.322 51.3226C11.6224 50.6956 10.9316 50.0599 10.2581 49.4068C10.7458 49.7377 11.2363 50.0686 11.724 50.3995C11.9939 50.5824 12.2552 50.1905 12.0578 49.967C11.306 49.1281 10.5542 48.2922 9.80241 47.4562C10.47 47.9003 11.1377 48.3415 11.8053 48.7856C12.0897 48.9772 12.38 48.5621 12.1594 48.3241C11.4511 47.5578 10.7342 46.7973 10.0201 46.0338C10.8329 46.5941 11.6137 47.1949 12.3713 47.8451C12.3597 49.0033 12.3423 50.1615 12.3249 51.3168L12.322 51.3226ZM12.3742 47.044C11.457 46.2196 10.6181 45.3343 9.86047 44.3735C10.6355 44.9511 11.4366 45.4881 12.2784 45.9787C12.3132 45.999 12.3481 46.0077 12.3829 46.0135C12.3829 46.3561 12.3771 46.6986 12.3742 47.0411V47.044ZM12.3858 45.2966C11.2218 44.3561 10.1217 43.3576 9.08545 42.2836C10.2117 42.8902 11.2944 43.5637 12.3394 44.3155C12.3568 44.3271 12.3742 44.33 12.3945 44.3387C12.3945 44.658 12.3887 44.9773 12.3887 45.2937L12.3858 45.2966ZM9.54988 40.8148C10.351 41.3141 11.1551 41.8133 11.9562 42.3126C12.1681 42.4432 12.3684 42.2865 12.409 42.0978C12.409 42.5854 12.4003 43.0731 12.3974 43.5608C11.4076 42.6812 10.4584 41.764 9.54698 40.8119L9.54988 40.8148ZM15.7733 67.6706C15.7675 67.8041 15.8197 67.9028 15.8981 67.9637C15.1811 68.939 13.8197 69.4151 12.4032 69.6357C12.4526 69.5892 12.4932 69.5225 12.5019 69.4383C12.5658 68.91 12.6122 68.3759 12.6442 67.8389C12.7138 67.7663 12.737 67.656 12.6587 67.569C12.7487 65.8302 12.7138 64.0654 12.7574 62.3441C12.8154 60.1264 12.8677 57.9088 12.9112 55.6911C13.0012 51.1078 13.0621 46.5244 13.0883 41.941C13.1144 37.3577 13.1086 32.7714 13.0708 28.1881C13.0331 23.7818 13.0709 19.3465 12.6964 14.9547C13.9184 15.4743 15.3204 15.4568 16.5367 14.827C16.4002 19.0359 16.5715 23.2651 16.5918 27.4711C16.6121 31.9645 16.6005 36.4579 16.5483 40.9483C16.4438 49.8625 16.1187 58.7651 15.7762 67.6735L15.7733 67.6706ZM15.0621 86.5816C14.8792 88.2478 12.7283 87.7601 11.5702 87.7224C10.4033 87.6846 9.23929 87.6469 8.07241 87.6063C6.90552 87.5685 5.74154 87.5308 4.57466 87.4902C4.04927 87.4728 3.50937 87.4873 2.98688 87.4321C1.99416 87.3334 1.84031 86.7935 1.77936 85.9488C1.62551 83.7805 1.88385 81.5396 1.56456 79.3916C1.55875 79.3626 1.54714 79.3394 1.53263 79.3191C1.59359 79.3568 1.65454 79.3945 1.7184 79.4265C2.62985 79.8938 3.71255 79.9286 4.71108 80.0099C6.21468 80.1318 7.71828 80.245 9.22478 80.2886C10.6558 80.3292 12.0897 80.306 13.5121 80.1638C13.8604 80.1289 14.2377 80.1028 14.6093 80.0506C14.6064 80.0767 14.6064 80.1057 14.6093 80.1347C14.6935 81.2639 14.7834 82.393 14.8734 83.5193C14.9547 84.5062 15.1724 85.5831 15.065 86.5729L15.0621 86.5816ZM15.5381 78.9678C14.8647 79.3742 13.8488 79.3452 13.0825 79.4062C11.4395 79.5426 9.7908 79.5252 8.14497 79.4468C6.62976 79.3742 5.08553 79.3075 3.58193 79.1159C2.63856 78.9969 1.63713 78.7298 1.12335 77.8532C0.67343 77.084 0.714068 76.1726 1.13786 75.412C1.19592 75.3075 1.1814 75.2118 1.12915 75.1421C2.82723 76.5789 5.66897 76.2829 7.70667 76.3061C9.19865 76.3235 10.6935 76.3438 12.1826 76.3119C13.1202 76.2916 14.0955 76.2277 14.9982 75.9403C14.9286 76.0768 14.9489 76.248 15.1318 76.3525C16.1013 76.9069 16.7689 78.2248 15.5381 78.965V78.9678ZM12.7893 75.5078C11.0332 75.6094 9.2509 75.5398 7.49187 75.5165C5.87797 75.4962 4.04927 75.6559 2.52245 75.0492C1.11174 74.489 0.116112 72.8054 1.02756 71.4121C1.20172 71.624 1.40201 71.8243 1.62842 72.0043C3.70385 73.6385 7.1029 73.2757 9.55859 73.1625C11.097 73.0928 12.6383 72.968 14.171 72.7822C14.7457 72.7125 15.3495 72.6255 15.9068 72.431C15.9242 72.4687 15.9532 72.5064 15.991 72.5384C16.885 73.325 16.4293 74.3526 15.5062 74.8809C14.6964 75.3453 13.6978 75.4527 12.7893 75.5049V75.5078Z" fill="var(--fill-0, #3C3C3B)"/>
</g>
<defs>
<clipPath id="clip0_0_185">
<rect width="17.7732" height="88.599" fill="white"/>
</clipPath>
</defs>
</svg>
