<svg preserveAspectRatio="none" width="100%" height="100%" overflow="visible" style="display: block;" viewBox="0 0 40.8823 41.1007" fill="none" xmlns="http://www.w3.org/2000/svg">
<g id="Group">
<path id="Vector" d="M40.193 16.2024C39.8884 14.6889 39.5838 13.1755 39.2887 11.662C39.2284 11.3447 38.9175 11.1702 38.6161 11.2876C37.1883 11.8397 35.7604 12.3949 34.3358 12.9565C32.6891 10.4468 30.4934 8.49541 27.8218 7.13423C27.9329 6.34418 28.0439 5.55729 28.1581 4.76724C28.266 3.99939 28.523 3.12049 28.4818 2.34313C28.431 1.34366 27.5013 1.26434 26.6922 1.11521C25.0741 0.82013 23.4559 0.525049 21.8409 0.229967C21 0.0776675 19.6706 -0.315774 19.0074 0.496492C18.3348 1.32145 19.0868 2.86666 19.2327 3.7646C19.2771 4.04699 19.4675 4.57369 19.385 4.85608C19.1502 5.662 18.3856 5.67786 17.7732 5.83651C17.1925 5.98564 16.6182 6.16649 16.0566 6.37591C13.3501 7.38172 10.9768 9.04433 9.1365 11.2717C9.13016 11.2781 9.12698 11.2876 9.12064 11.2971C7.48341 10.4944 5.84301 9.69478 4.20579 8.89203C3.96148 8.77146 3.66322 8.94279 3.56486 9.17124C3.08258 10.2945 2.59712 11.4177 2.11484 12.5409C2.05455 12.5948 2.01965 12.6773 2.02282 12.7566C1.35968 14.2955 0.699718 15.8344 0.0365785 17.3732C-0.0744736 17.6334 0.0809993 17.9031 0.318968 18.0173C1.72457 18.6868 3.16825 19.2357 4.65952 19.6768C4.36761 23.2146 5.47178 26.6953 7.76263 29.4081C6.8996 30.4488 6.03022 31.4864 5.17036 32.5303C4.61827 33.1997 4.05984 33.8724 4.50722 34.7608C5.05296 35.8523 6.5823 36.801 7.46755 37.6037C8.7145 38.7365 9.96463 39.8692 11.2116 41.0019C11.421 41.1923 11.7542 41.0813 11.9096 40.8909C13.0773 39.4726 14.0894 37.9686 14.981 36.3727C17.9096 37.5847 21.1745 37.5657 24.0905 36.3282C24.5442 37.388 25.0011 38.4477 25.4548 39.5107C25.5627 39.7582 25.8641 39.8755 26.1116 39.7677C29.1576 38.4477 32.2036 37.131 35.2496 35.811C35.5764 35.6714 35.6018 35.3097 35.4368 35.0432C34.6436 33.7645 33.8503 32.4858 33.0539 31.2071C35.1861 28.3388 36.2332 24.8581 36.0682 21.2981C37.2676 21.314 38.5939 21.4346 39.7361 21.1966C40.4913 21.0379 40.8657 20.5906 40.8815 19.8259C40.9037 18.6741 40.4151 17.3383 40.1898 16.2119L40.193 16.2024ZM5.93503 10.8275C5.68754 10.764 5.43688 10.7006 5.18939 10.6371C5.29727 10.6308 5.40833 10.6244 5.51938 10.6244C5.65899 10.6911 5.79542 10.7609 5.93503 10.8275ZM2.30204 14.6001C2.30521 14.6731 2.34012 14.7429 2.42261 14.7841C3.09527 15.13 3.78379 15.406 4.48183 15.6091C3.59659 15.6472 2.70817 15.6821 1.82293 15.7106C1.98158 15.3394 2.14022 14.9682 2.29887 14.5969L2.30204 14.6001ZM2.54953 14.3209C2.48924 14.3209 2.43848 14.3463 2.39723 14.3812L2.84144 13.3468C3.5839 13.7212 4.34857 14.0163 5.13228 14.2352C4.27242 14.2701 3.40939 14.3018 2.54953 14.3241V14.3209ZM3.4316 11.9698C4.08522 12.1125 4.73884 12.2553 5.39246 12.3949C4.67221 12.414 3.94878 12.4298 3.22853 12.4425C3.29516 12.2839 3.36497 12.1252 3.4316 11.9666V11.9698ZM3.90436 10.8656C4.39617 10.9988 4.88797 11.1321 5.3766 11.2654C4.81182 11.3034 4.24704 11.3415 3.68226 11.3828C3.75524 11.2114 3.83139 11.0369 3.90436 10.8656ZM4.27242 10.0152C4.36444 10.0597 4.45645 10.1041 4.54847 10.1485C4.43107 10.1612 4.31367 10.1739 4.19627 10.1897C4.22165 10.1326 4.24704 10.0724 4.27242 10.0152ZM1.57862 16.2881C2.99056 16.672 4.40251 17.0528 5.81446 17.4335C4.32953 17.4272 2.84778 17.4145 1.36286 17.3923C1.28988 17.3605 1.2169 17.332 1.14393 17.2971C1.28671 16.9608 1.43266 16.6244 1.57544 16.2881H1.57862ZM3.62515 18.2902C4.27559 18.3949 4.92604 18.4933 5.57649 18.5916C5.51938 18.7059 5.56697 18.8677 5.71293 18.9184C6.02704 19.0231 6.34116 19.1342 6.65211 19.2389C6.39828 19.2833 6.14761 19.3246 5.89378 19.3722C5.65264 19.4166 5.67485 19.7783 5.89378 19.8386C6.11271 19.8989 6.33482 19.9592 6.55375 20.0194C6.2428 20.0575 5.93186 20.0924 5.62091 20.1305C5.6336 19.8767 5.65264 19.626 5.6812 19.3722C5.70341 19.1691 5.57649 18.9089 5.36708 18.8518C4.77692 18.6836 4.19627 18.4964 3.62197 18.2934L3.62515 18.2902ZM6.03022 21.425C5.77956 21.4473 5.65581 21.7772 5.89695 21.92C6.32213 22.1707 6.74412 22.3801 7.17881 22.5609C6.71557 22.5927 6.25232 22.6212 5.78908 22.653C5.77321 22.653 5.76052 22.6593 5.74783 22.6625C5.65581 22.066 5.61139 21.4568 5.60822 20.8444C6.01435 21.0157 6.42366 21.1839 6.82979 21.3552C6.56327 21.3775 6.29674 21.3997 6.03339 21.425H6.03022ZM7.64206 31.1151C8.44798 31.2896 9.2539 31.4642 10.0598 31.6418C9.0191 31.7497 7.97839 31.8576 6.94084 31.9623C7.17564 31.6799 7.40726 31.3975 7.64206 31.1183V31.1151ZM8.78114 29.7413C9.27928 29.9062 9.77743 30.0712 10.2756 30.2362C9.5236 30.3758 8.77162 30.5154 8.01964 30.6551C8.27347 30.3505 8.52413 30.0459 8.77796 29.7413H8.78114ZM8.85411 29.1638C8.83825 29.1352 8.82556 29.1035 8.80652 29.0813C8.65739 28.9163 8.51461 28.7481 8.37817 28.58C8.76844 28.6815 9.1714 28.7989 9.43158 28.9893C9.47918 29.0051 9.51725 29.021 9.54898 29.0305C9.31736 29.0749 9.08574 29.1225 8.85411 29.167V29.1638ZM7.29304 27.0094C7.31208 27.0284 7.33746 27.0475 7.36601 27.0601C7.55004 27.1299 9.31736 27.682 9.32053 27.7963C9.32053 27.8248 8.47654 27.993 8.0006 28.0882C7.74359 27.7391 7.5088 27.3806 7.29304 27.0094ZM7.36601 26.6826C7.24544 26.7143 7.21054 26.819 7.23592 26.9142C6.96623 26.4446 6.73143 25.956 6.52519 25.4578C7.22958 25.7624 7.93714 26.0638 8.6447 26.3621C8.21953 26.47 7.79119 26.5747 7.36601 26.6826ZM6.64576 24.9946C6.53471 24.9946 6.44904 25.0834 6.41414 25.1818C6.31895 24.9343 6.23646 24.6868 6.15713 24.4361C6.61086 24.617 7.06459 24.7979 7.51514 24.9787C7.22641 24.9851 6.9345 24.9914 6.64576 24.9977V24.9946ZM5.84301 23.1987C6.11589 23.37 6.38558 23.516 6.65845 23.6397C6.43 23.6651 6.19838 23.7 5.96359 23.7444C5.91916 23.5636 5.87792 23.3827 5.83984 23.1987H5.84301ZM6.55058 32.4287C6.55058 32.4287 6.56009 32.4192 6.56327 32.4129C7.89272 32.6064 9.22217 32.8031 10.5516 32.9967C8.92709 33.3076 7.28986 33.5107 5.6336 33.5995C5.65264 33.5519 5.67168 33.5043 5.69706 33.4536C5.87474 33.0887 6.29357 32.7365 6.5474 32.4255L6.55058 32.4287ZM5.53207 33.9771C7.04872 34.1326 8.56538 34.2849 10.0789 34.4403C8.8795 34.5324 7.67696 34.6275 6.4776 34.7196C6.25549 34.7354 6.25549 35.0495 6.4776 35.0654C7.74676 35.1574 9.01276 35.2463 10.2819 35.3383C9.22217 35.4557 8.16559 35.6175 7.11218 35.8301C7.0868 35.8364 7.06459 35.8491 7.04555 35.865C6.84883 35.6841 6.64894 35.5064 6.44904 35.3256C5.91599 34.837 5.46227 34.5514 5.5289 33.9771H5.53207ZM7.43899 36.2235C8.70816 36.3949 9.97732 36.5694 11.2497 36.7407C10.2629 36.8518 9.27294 36.9343 8.27981 36.985C8.0006 36.7312 7.71821 36.4774 7.43899 36.2204V36.2235ZM10.0281 38.5747C10.5135 38.6159 11.1196 38.6762 11.44 38.7904C11.3798 38.8126 11.3131 38.8348 11.237 38.8697L10.485 38.9903C10.3327 38.8539 10.1836 38.7143 10.0313 38.5778L10.0281 38.5747ZM9.56485 38.1558C9.32688 37.9401 9.09208 37.7243 8.85411 37.5086C9.69176 37.6164 10.5294 37.7243 11.3702 37.829C10.7674 37.9369 10.1677 38.0448 9.56802 38.1558H9.56485ZM11.4464 39.8629C11.183 39.6249 10.9229 39.3869 10.6595 39.149C11.1354 39.1077 11.6114 39.0665 12.0873 39.022C11.8779 39.3044 11.6653 39.5868 11.4464 39.866V39.8629ZM39.8757 19.5181C39.7456 20.2511 39.2633 20.2638 38.6732 20.2796C37.6103 20.3018 36.5505 20.3082 35.4876 20.324C35.2147 20.3272 35.0561 20.6413 35.0751 20.8761C35.3607 24.4901 34.2819 28.0215 32.0576 30.8772C31.9085 31.0675 31.9593 31.296 32.0735 31.4832C32.8255 32.6952 33.5775 33.9073 34.3295 35.1194C31.6103 36.2965 28.8911 37.4737 26.1751 38.6476C25.7182 37.5847 25.2644 36.525 24.8075 35.462C24.7028 35.2209 24.3951 35.0908 24.1507 35.205C21.2126 36.5979 17.9033 36.617 14.9461 35.2653C14.6796 35.1447 14.4194 35.3224 14.2988 35.5477C13.7023 36.655 13.0328 37.7148 12.2999 38.7301C12.2904 38.7301 12.284 38.7238 12.2745 38.7206C11.9858 38.6635 10.4691 38.3399 10.1423 38.3399C10.5072 38.2796 12.4268 38.0067 12.6108 37.975C12.7822 37.9464 12.7885 37.645 12.6108 37.6228C11.7034 37.5022 10.7991 37.3816 9.89166 37.2611C10.8404 37.1754 11.7859 37.0675 12.7282 36.9311C12.9599 36.8962 12.8679 36.5852 12.6775 36.5599C11.2148 36.3663 9.75205 36.1728 8.28933 35.976C9.70128 35.7317 11.1164 35.5699 12.5537 35.5033C12.779 35.4938 12.7758 35.1733 12.5537 35.1574C11.3068 35.0686 10.0598 34.9797 8.80969 34.8877L12.0302 34.6402C12.2587 34.6244 12.2523 34.3134 12.0302 34.2912C10.4882 34.1326 8.94613 33.9739 7.40409 33.8185C8.82556 33.6757 10.2343 33.4536 11.6399 33.1458C11.8049 33.1109 11.8176 32.8285 11.6399 32.8031C10.3137 32.6127 8.98737 32.4255 7.6611 32.2352C8.83825 32.1178 10.0154 32.0035 11.1926 31.8893C11.3798 31.8703 11.4527 31.5815 11.2401 31.5371C10.3486 31.3404 9.46014 31.1437 8.56855 30.9438C9.41889 30.7915 10.2661 30.636 11.1164 30.4869C11.3195 30.452 11.2877 30.1601 11.1164 30.103C10.4501 29.8936 9.7806 29.6841 9.11429 29.4716C9.49821 29.3922 9.87896 29.3129 10.2629 29.2336C10.4342 29.1987 10.412 28.9544 10.2629 28.9068C10.0852 28.8497 8.2576 28.3864 8.25126 28.3008C8.25126 28.2627 9.76474 28.0088 9.88214 27.9866C10.0471 27.9549 10.0027 27.7423 9.88214 27.6916C9.27611 27.4409 8.66691 27.1871 8.06088 26.9364L9.42206 26.6445C9.60609 26.6064 9.65686 26.305 9.476 26.2225C8.9144 25.9655 8.34962 25.718 7.78484 25.4737C8.10848 25.4673 8.42894 25.4642 8.75258 25.4578C9.05401 25.4515 9.07304 25.0644 8.81921 24.9628C8.14655 24.69 7.47389 24.4203 6.80124 24.1474C7.33429 24.0935 7.86099 24.0839 8.42577 24.1252C8.72085 24.1474 8.79383 23.6461 8.49557 23.6048C7.83561 23.5097 7.23275 23.3415 6.64894 23.0813C7.24862 23.0528 7.8483 23.0242 8.44481 22.9956C8.73354 22.9829 8.80017 22.5736 8.51461 22.488C7.9657 22.323 7.44534 22.1167 6.94084 21.8756L7.90224 21.7899C8.20684 21.7645 8.25126 21.3838 7.97204 21.2727C7.3438 21.0253 6.71239 20.7778 6.08098 20.5303C6.62673 20.4637 7.17564 20.397 7.72138 20.3336C7.9657 20.305 8.05136 19.956 7.78167 19.8798C7.51197 19.8037 7.24227 19.7275 6.97575 19.6482C7.18199 19.607 7.38823 19.5689 7.59446 19.5276C7.82609 19.48 7.78801 19.1596 7.59446 19.0961C7.35967 19.0168 7.12805 18.9343 6.89325 18.855C6.97575 18.8486 7.05507 18.8455 7.13756 18.8391C7.43582 18.8835 7.56908 18.4298 7.26448 18.379C6.2079 18.2077 5.15132 18.0427 4.09474 17.8841C5.33535 17.9095 6.57913 17.938 7.81974 17.9697C8.118 17.9761 8.17511 17.5287 7.88955 17.4526C6.28405 17.0242 4.67855 16.5959 3.07306 16.1707C4.43741 16.1231 5.80177 16.0787 7.16612 16.0374C7.6135 16.0501 8.06088 16.0374 8.52096 15.9962C8.86998 15.9613 8.88267 15.4251 8.52096 15.4409C8.20684 15.4536 7.89272 15.4695 7.58177 15.4822C6.22694 15.4949 4.92287 15.2696 3.65688 14.7873C5.24651 14.7397 6.83931 14.7175 8.42894 14.6826C8.80335 14.6731 8.80652 14.102 8.42894 14.0988C6.64259 14.0829 4.98315 13.718 3.3967 12.9946C4.92604 12.9629 6.45539 12.9502 7.98791 12.9311C8.32106 12.928 8.41625 12.4044 8.0704 12.3315C7.24227 12.1538 6.41097 11.9888 5.57649 11.8301C6.09685 11.8016 6.62038 11.773 7.14074 11.7445C7.27083 11.7381 7.35967 11.6556 7.40409 11.5541C7.92445 11.8079 8.44798 12.0649 8.96834 12.3188C9.39034 12.525 9.69494 12.0745 9.5934 11.7159C11.3417 9.97082 13.3597 8.50811 15.641 7.54354C16.7769 7.06443 17.9509 6.86136 19.1122 6.4933C19.8038 6.27437 20.283 5.8968 20.3369 5.13847C20.3718 4.64667 20.2481 4.11362 20.1719 3.63133C20.1021 3.18712 19.642 2.05122 19.7785 1.68634C20.2544 0.420343 22.8562 1.41664 23.7922 1.5848C24.4077 1.69585 25.0265 1.80691 25.642 1.91796C26.0069 1.98459 26.4479 1.99411 26.797 2.12737C27.4252 2.36534 27.3839 2.46687 27.4188 2.99992C27.4569 3.59326 27.238 4.30399 27.1555 4.89733C27.0444 5.68738 26.9334 6.47744 26.8255 7.2675C26.7811 7.57844 27.0064 7.7593 27.2475 7.78151C29.9159 9.20615 32.1465 11.3193 33.7488 13.8799C33.8662 14.0671 34.1486 14.0956 34.3326 14.0226C35.7033 13.4864 37.074 12.9438 38.4447 12.3981C38.8223 14.2416 39.1872 16.0882 39.5552 17.9348C39.6409 18.3632 39.9487 19.1025 39.8725 19.5245L39.8757 19.5181Z" fill="var(--fill-0, #3C3C3B)"/>
<path id="Vector_2" d="M25.9307 18.8327C24.8868 16.0913 21.5235 15.1806 18.9312 16.4435C16.3136 17.719 15.4632 20.8665 16.6118 23.4493C17.8239 26.1811 21.0476 27.4091 23.789 26.2002C26.6129 24.9564 27.5869 21.3742 25.9338 18.8327H25.9307ZM17.4971 22.894C16.6499 20.8284 17.2972 18.4234 19.3374 17.3731C21.5108 16.2563 23.6493 17.0019 25.0327 18.7343C24.928 18.8993 24.8995 19.1182 25.0327 19.3245C26.3939 21.4218 25.5817 24.3662 23.2115 25.3054C20.9429 26.2034 18.4172 25.1436 17.4939 22.894H17.4971Z" fill="var(--fill-0, #3C3C3B)"/>
</g>
</svg>
