<svg preserveAspectRatio="none" width="100%" height="100%" overflow="visible" style="display: block;" viewBox="0 0 118 107" fill="none" xmlns="http://www.w3.org/2000/svg">
<g id="Objects" opacity="0.34" clip-path="url(#clip0_0_221)">
<path id="Vector" d="M89.8507 47.786C88.9097 47.9638 87.9049 48.17 86.9799 47.8264C86.5573 47.6687 86.2144 47.4788 85.9432 47.0705C85.8555 46.9371 85.716 46.5732 85.6562 46.2377C85.7758 45.9992 85.8794 45.7526 85.9711 45.502C86.0429 45.4333 86.0668 45.316 85.9991 45.2352C85.9233 44.9563 85.5126 44.835 85.2814 45.0492C84.8308 45.4575 84.5597 46.0113 84.472 46.5894C83.208 48.4045 80.9872 49.4919 78.9338 50.0902C77.5941 50.4783 75.8836 50.7046 74.6636 49.8355C73.5511 49.0432 72.9969 47.4626 73.8542 46.2943C74.1891 45.7971 73.4116 45.3686 73.0727 45.8294C71.6014 48.0285 69.1015 48.6228 66.6294 48.736C66.1908 48.6672 65.7443 48.6309 65.2937 48.6309C64.8671 48.6309 64.4205 48.6632 63.978 48.7319C62.6742 48.6996 61.2508 48.5743 60.5689 47.309C59.7197 45.7364 60.3975 43.8931 60.9836 42.361C61.179 41.8476 60.4533 41.6536 60.1782 42.0174C59.7595 42.5712 58.9821 42.555 58.4797 42.175C58.3282 41.9123 58.1527 41.6536 57.9494 41.3989C57.6703 41.0553 57.1081 41.4272 57.2277 41.8233C57.3473 42.2155 57.5586 42.5308 57.8218 42.7693C58.5395 44.1801 58.4438 45.9184 57.7421 47.3534C56.8968 49.0796 55.2142 50.2276 53.4718 50.8744C49.9432 52.1923 44.6402 52.1033 42.9856 47.98C42.7862 47.4828 41.9928 47.6728 42.1682 48.2064C43.2846 51.6021 39.1778 53.3403 36.5503 53.6031C33.241 53.9346 31.4268 51.9012 29.7761 49.31C29.5488 48.9502 29.0624 49.12 29.0225 49.5162C28.8631 51.1776 27.2004 52.2812 25.6335 51.8608C25.143 51.7274 24.9317 52.4995 25.4221 52.6329C25.4221 52.6329 25.4261 52.6329 25.4301 52.6329C25.474 52.7016 25.5417 52.7501 25.6454 52.7501C27.7387 52.7582 30.0791 53.1139 31.6341 54.6743C32.619 55.6607 33.1453 57.1605 32.906 58.5187C32.5312 59.0725 32.2202 59.6951 31.989 60.3742C31.8534 60.7704 32.4076 61.0897 32.6828 60.7825C33.1851 60.2206 33.5001 59.5657 33.6516 58.8785C36.0399 55.4303 41.1794 55.0058 44.102 58.4379C44.3292 58.7047 44.8516 58.4985 44.8197 58.1387C44.4847 54.4156 48.9105 52.4954 51.9607 52.4227C54.9949 52.3459 57.9374 53.6233 59.8911 55.9881C60.2101 56.3722 60.7165 55.9437 60.6447 55.5435C60.3217 53.692 60.1064 51.6182 61.8887 50.45C62.5147 50.0376 63.2403 49.783 63.9859 49.6536C64.8312 49.694 65.7084 49.7102 66.5776 49.6698C69.3327 50.1427 71.7131 52.0023 72.8016 54.6218C72.9889 55.0705 73.6668 54.8158 73.6628 54.3833C73.6548 52.1478 75.9235 50.9593 77.7935 52.0063C79.4282 52.9239 80.5925 54.646 81.2424 56.3843C81.4537 56.9502 82.2591 56.736 82.1395 56.1337C81.8684 54.7794 82.0837 53.4697 82.6419 52.3661C83.4991 51.2544 84.6394 50.4297 86.0589 50.0659C87.582 49.6778 89.0572 49.6576 90.3371 48.6309C90.7717 48.2832 90.2853 47.693 89.8467 47.7779L89.8507 47.786ZM45.3579 51.7072C45.1945 51.6182 45.039 51.5172 44.8874 51.408C45.0748 51.5172 45.2662 51.6223 45.4616 51.7153H45.3579V51.7072Z" fill="var(--fill-0, #3C3C3B)"/>
<path id="Vector_2" d="M114.794 51.5172C116.309 50.2761 116.098 47.9881 115.364 46.1852C114.471 43.9941 113.104 41.8314 110.795 41.0472C110.859 39.224 110.504 37.3968 109.599 35.6869C109.073 34.6965 108.359 33.7667 107.494 33.0269C109.444 30.561 107.558 27.0077 106.198 24.7075C104.539 21.898 101.888 19.4968 98.5307 19.517C97.809 13.1986 92.1074 8.00004 85.6601 9.0915C85.4568 7.13899 83.6426 5.42095 82.0597 4.52756C80.0342 3.38759 77.6021 3.05206 75.3453 3.55737C74.9307 3.65035 73.2641 4.24055 72.2314 4.9601C70.4292 0.323397 62.5466 0.618497 59.7276 4.48309C58.1128 1.32593 54.4327 -0.796366 50.92 0.27893C49.8315 0.610412 48.8268 1.2855 48.0213 2.15868C47.2159 1.1521 45.3978 0.739771 44.2455 0.5902C42.6666 0.388077 41.0558 0.610412 39.5247 1.01466C37.6786 1.49975 35.721 2.23953 34.2656 3.52907C34.2138 3.41992 34.1141 3.33503 33.9546 3.30674C31.3072 2.78122 28.4125 2.73675 26.0082 4.15161C24.2698 5.17436 23.0059 6.84794 22.663 8.83683C20.5099 7.88281 17.9861 8.0728 15.9446 9.28554C14.5412 10.1183 12.4918 12.2608 12.9503 14.0799C11.2119 13.7525 9.38975 14.3427 8.05804 15.5594C6.21996 17.2411 5.67771 19.7879 5.84118 22.1891C5.84915 22.3306 5.96079 22.3993 6.06845 22.3993C4.73275 23.3776 3.68811 24.8046 3.08206 26.4135C2.87872 26.9552 2.71525 27.5413 2.60759 28.1477C2.52785 28.1194 2.44013 28.1194 2.3564 28.1639C0.805396 29.0128 0.023913 31.2806 -9.97695e-06 32.9703C-0.0239329 34.7126 0.681794 36.5601 2.03344 37.6677C1.61479 38.836 1.41942 40.0851 1.51112 41.3463C1.68656 43.8284 2.94251 46.6096 5.07963 47.9881C3.50869 49.601 4.82445 51.9942 6.13224 53.3363C9.91606 57.217 15.5778 58.9877 20.8648 58.1387C21.0362 58.1104 21.128 58.0134 21.1638 57.8921C21.8815 58.353 22.7587 58.5147 23.5601 58.3409C22.5593 59.5779 21.6822 60.9402 21.5346 62.5571C21.3393 64.7199 22.671 66.636 24.3017 67.8972C26.6183 69.6881 29.7841 70.2661 32.5711 69.4738C32.2043 70.3268 32.1684 71.3778 32.4475 72.2429C33.1612 74.4541 35.6532 75.4162 37.7225 75.7235C40.661 76.16 43.7152 75.7315 46.4504 74.5754C47.4073 74.1711 48.4599 73.6335 49.3212 72.922C49.7518 76.2813 52.3913 79.5436 54.9311 81.5486C56.5658 82.8382 58.6112 83.9094 60.6846 84.1601C60.7125 84.2207 60.7563 84.2814 60.8281 84.3258C61.2428 84.5886 61.6574 84.8554 62.0721 85.1181C61.1471 84.7543 60.2141 84.3986 59.2771 84.0631C58.8624 83.9135 58.691 84.5077 58.998 84.7341C59.0658 84.7867 59.1375 84.8311 59.2053 84.8796C59.2771 85.5547 59.6479 86.2096 59.935 86.8079C60.3297 87.6366 60.7683 88.441 61.2188 89.2415C62.1239 90.8423 63.1048 92.3946 64.0577 93.9671C65.0744 95.6407 66.0752 97.3264 66.9404 99.0849C67.5744 100.378 68.0329 101.708 68.4994 103.051C68.4874 103.051 68.4755 103.051 68.4595 103.046C68.2123 103.022 68.1286 103.398 68.3359 103.511C68.4715 103.584 68.6031 103.657 68.7386 103.73C68.8224 103.964 68.9061 104.199 68.9938 104.433C69.4723 105.727 70.2498 106.782 71.6811 106.964C73.272 107.166 74.9865 106.523 76.2066 105.516C77.303 104.611 77.9809 103.483 77.3469 102.088C76.4937 100.225 75.2536 98.4623 74.1771 96.7038C75.7839 95.4992 76.7289 93.676 76.7967 91.6184C77.1675 91.6993 77.5383 91.7761 77.9091 91.8448C80.9194 92.3824 84.2168 92.6816 87.263 92.2895C89.3841 92.0146 91.5053 90.9433 92.2509 88.8534C95.7118 90.0985 99.3002 87.3294 100.664 84.1358C102.087 80.7967 101.669 76.8513 99.4677 73.9852C99.6112 73.9286 99.7508 73.8639 99.8863 73.7912C101.106 76.1479 103.598 77.9347 106.302 76.9887C107.972 76.4026 108.925 74.7896 108.794 73.1807C109.296 73.5122 109.858 73.7265 110.484 73.686C111.501 73.6173 112.326 72.8573 112.741 71.9518C113.658 69.9468 113.012 67.303 112.051 65.1767C112.888 65.4475 113.833 65.399 114.695 65.0837C116.529 64.4086 117.541 62.6461 117.852 60.7623C118.351 57.7426 117.753 53.1301 114.802 51.5253L114.794 51.5172ZM105.201 24.849C106.385 26.749 108.511 30.274 106.86 32.4287C106.84 32.457 106.824 32.4812 106.808 32.5095C106.361 32.2104 105.883 31.9597 105.381 31.7778C104.184 31.3453 102.869 31.418 101.848 32.0406C102.271 29.5949 102.083 27.0562 101.226 24.7156C100.68 23.224 99.8345 21.6959 98.7141 20.4751C101.513 20.5559 103.742 22.5044 105.201 24.8531V24.849ZM85.6003 10.1991C85.6442 10.0091 85.6641 9.82319 85.6761 9.63724C88.6784 9.5766 91.617 10.3406 93.9255 12.378C95.9749 14.181 97.2508 16.7277 97.5857 19.4362C97.0754 19.0441 96.5291 18.7166 95.935 18.4781C94.5435 17.9162 93.2397 18.0779 92.1472 18.7085C91.6967 15.8586 89.9384 13.2755 87.3507 11.9819C86.641 11.6261 85.8954 11.3836 85.1378 11.2421C85.3491 10.951 85.5086 10.6074 85.6003 10.1991ZM39.138 1.98889C40.5135 1.6089 41.9369 1.32593 43.3683 1.38252C44.098 1.41082 44.8316 1.52805 45.5254 1.75847C45.7487 1.83124 47.2997 2.64781 47.3595 2.51037C47.2877 2.67611 47.3156 2.82973 47.3914 2.94696C46.9488 3.57758 46.5979 4.27289 46.3786 5.00053C44.1139 3.99396 40.8644 4.52352 38.7432 5.4452C38.4402 5.5786 38.6555 6.07178 38.9665 5.98285C40.2902 5.59073 41.614 5.32797 42.9975 5.35627C44.098 5.38052 45.1187 5.70796 46.1793 5.88179C46.0198 6.9207 46.1274 7.98791 46.5939 8.98236C46.6139 9.02682 46.6458 9.05108 46.6777 9.07129C44.8595 9.97276 43.2926 11.3593 42.1243 13.0329C41.303 11.3391 39.8836 10.0496 38.2089 9.35022C37.6069 7.52303 35.9721 6.26178 34.1022 5.92625C33.8071 5.8737 33.5081 5.84136 33.2051 5.83328C34.5009 3.65843 36.8055 2.63569 39.138 1.98889ZM40.0111 21.1825C39.429 20.2487 38.7193 19.3998 37.8541 18.6681C35.4139 16.6145 32.2362 16.1294 29.3375 17.4675C28.261 17.9647 27.1446 18.7328 26.1837 19.6747C25.2706 17.6413 24.1702 14.8965 25.9524 13.0087C27.8702 10.9793 30.2147 13.3684 31.4826 14.8924C31.7697 15.236 32.3957 14.8682 32.2402 14.4437C31.8574 13.4008 32.3997 12.2851 33.3366 11.8889C33.6596 11.8404 33.9826 11.7838 34.3015 11.7231C34.8398 11.6221 34.6803 10.8217 34.1779 10.7974C33.7832 10.7772 33.4084 10.85 33.0615 10.9834C31.6939 11.1976 30.2944 11.3189 28.9228 11.2259C28.0736 11.1693 27.0529 10.9632 27.021 9.86766C26.997 9.03491 28.58 8.25067 29.1701 7.91515C31.6142 6.54071 35.5336 6.20518 36.9809 8.94597C36.1556 8.75598 35.2983 8.70343 34.4371 8.80853C33.835 8.88534 33.8191 9.84744 34.4371 9.78277C35.5375 9.66553 36.5622 9.79085 37.5869 10.2355C37.6946 10.28 37.8023 10.2921 37.9099 10.2719C39.429 10.9268 40.6969 12.1436 41.4066 13.7565C41.4425 13.8374 41.4904 13.894 41.5422 13.9344C41.0398 14.8075 40.6411 15.7373 40.362 16.7156C39.9593 18.1345 39.8038 19.6908 40.0111 21.1744V21.1825ZM20.49 15.1592C20.5179 15.3048 20.5538 15.4463 20.5897 15.5877C20.6814 16.5337 19.9318 17.3826 18.9191 17.3058C18.4725 17.2735 18.3728 18.0092 18.8114 18.0981C20.3704 18.4175 22.0889 18.749 23.2252 19.9779C23.3169 20.0789 23.4006 20.18 23.4764 20.281C24.226 22.6338 21.9812 24.3559 19.9637 24.8692C19.0028 25.1118 17.9821 25.1441 17.0092 24.9501C16.2437 24.8005 15.5419 24.4124 14.7804 24.275C14.6927 24.2063 14.585 24.2063 14.4973 24.2427C14.4255 24.2588 14.3657 24.3154 14.3298 24.3882C14.2062 24.4165 14.1225 24.5701 14.2342 24.6954C14.3617 24.8409 14.4973 24.9743 14.6369 25.0997C14.9319 25.896 14.9439 26.943 14.5332 27.6424C14.4893 27.703 14.4495 27.7637 14.4096 27.8243C14.1185 28.2002 13.668 28.4347 13.034 28.4064C11.6265 28.3417 11.2637 26.5994 11.2079 25.4756C11.0883 23.0542 11.782 20.5883 13.0181 18.5266C14.2421 16.4892 16.0324 14.8601 18.1615 13.8495C19.2859 13.3159 20.49 12.9601 21.718 12.7863C22.8464 12.6246 23.9548 12.8065 25.0633 12.7499C23.5641 14.662 24.23 17.2573 25.1271 19.424C23.3169 18.7853 21.9373 17.3139 21.4071 15.422C21.3831 15.2603 21.3512 15.1026 21.2914 14.9409C21.104 14.4356 20.3824 14.6256 20.49 15.1673V15.1592ZM6.27179 22.1931C6.28774 20.1072 6.86588 17.8596 8.36505 16.3518C9.77252 14.9369 11.8219 14.4154 13.6759 15.1633C14.0866 15.329 14.3378 14.7388 14.0826 14.4599C13.1975 13.4857 14.266 11.9253 14.9518 11.1855C15.6177 10.4659 16.455 9.91212 17.3681 9.56447C19.1543 8.87725 21.1399 8.96214 22.8105 9.92425C23.1255 10.1062 23.4644 9.8717 23.4883 9.52809C23.8552 4.4265 29.5967 3.50077 33.5719 4.24459C33.225 4.65288 32.926 5.10563 32.6827 5.6069C32.6429 5.68775 32.6429 5.7686 32.6668 5.83732C30.7689 5.9303 28.867 6.80751 27.3958 7.94749C26.2196 8.85704 25.5537 10.5064 26.7498 11.4968C26.379 11.618 26.0082 11.8242 25.6494 12.1395C25.6055 12.0789 25.5457 12.0263 25.462 11.99C24.1024 11.4442 22.2164 11.7272 20.817 12.0142C19.2101 12.3457 17.6432 12.9884 16.2636 13.8899C13.7039 15.5675 11.81 18.1668 10.9128 21.1098C9.18641 20.8793 7.59154 21.3483 6.25983 22.2659C6.26781 22.2416 6.27578 22.2174 6.27578 22.1891L6.27179 22.1931ZM3.99114 26.5307C5.11552 23.7171 7.6354 21.7444 10.6736 21.9708C10.2231 23.8829 9.80043 27.3432 11.5508 28.7379C11.5149 28.7581 11.479 28.7783 11.4471 28.8066C11.0564 28.6449 10.6337 28.5479 10.1832 28.5438C10.1752 28.5398 10.1672 28.5358 10.1593 28.5277C9.97985 28.4266 9.81239 28.4711 9.69676 28.5762C9.67284 28.5762 9.64892 28.5802 9.62499 28.5843C7.30048 28.944 5.51822 31.0259 4.65699 33.1927C2.87872 31.608 3.16579 28.5843 3.98715 26.5307H3.99114ZM0.797422 32.9703C0.857229 31.3048 1.65067 30.2821 2.49196 29.0492C2.34045 30.9572 2.791 32.9057 4.31011 34.0739C3.43293 34.9592 2.72721 36.0103 2.24077 37.1543C1.38353 35.889 0.741602 34.5792 0.801409 32.9703H0.797422ZM2.36836 41.1685C2.29261 39.1917 2.91859 37.2998 4.05493 35.7475C3.86355 37.9143 4.43371 40.1093 5.72156 41.8921C7.64338 44.5601 10.8331 46.1609 14.0747 46.1892C14.0787 46.1892 14.0826 46.1892 14.0906 46.1892C14.7365 46.7107 15.4941 47.1068 16.2915 47.3615C15.4821 47.2807 14.6528 47.2888 13.8554 47.309C12.8147 47.3332 11.6664 47.3332 10.6816 47.7213C10.0277 47.98 9.46152 48.5177 9.16647 49.1402C8.24942 47.8062 7.02537 46.5975 5.55012 47.6041C3.81969 45.7769 2.47602 43.8324 2.37235 41.1725L2.36836 41.1685ZM9.48943 54.9371C7.95437 53.9629 5.75745 52.3903 5.29494 50.5066C4.96799 49.1685 6.00864 47.5111 7.50781 48.4489C8.18164 48.8694 8.59232 49.6132 8.97509 50.3408C9.03888 50.7087 9.22628 51.0725 9.56917 51.3878C9.91207 51.7072 10.5062 51.2948 10.239 50.8623C10.1154 50.6642 9.97586 50.4297 9.82834 50.1791C9.71271 49.5687 10.1752 48.9098 10.7454 48.6187C11.3594 48.3034 12.101 48.2509 12.7709 48.2064C14.0986 48.1175 15.522 48.0528 16.8418 48.2792C18.2532 48.5217 19.6248 49.5404 18.8234 51.1574C18.1176 52.5844 16.455 52.8997 15.0356 53.0493C14.4893 53.1059 14.4654 53.9548 15.0356 53.9305C16.443 53.8739 17.8385 53.9346 19.246 54.0073C19.3417 55.2241 19.6886 56.4369 20.49 57.31C16.6663 57.8275 12.7709 57.0109 9.48943 54.929V54.9371ZM94.7269 74.2682C94.4757 74.1226 94.2246 73.9731 93.9734 73.8316C94.3202 73.9165 94.6791 73.9933 95.0419 74.062C94.9143 74.0822 94.7987 74.1631 94.7309 74.2722L94.7269 74.2682ZM90.1417 72.4773C90.1497 72.5259 90.1696 72.5703 90.2015 72.6188C90.2932 72.7482 90.3849 72.8735 90.4766 72.9948C89.8227 72.6471 89.1648 72.3116 88.491 71.9963C88.1521 71.8386 87.7016 72.1782 87.9328 72.5542C87.6019 72.4733 87.251 72.4167 86.8842 72.3884C86.5054 72.3561 86.3898 72.8452 86.5971 73.0918C86.7327 73.2535 86.8682 73.4112 87.0038 73.5729C86.3419 73.3061 85.6522 73.112 84.9105 72.9867C84.5677 72.9261 84.2766 73.2535 84.452 73.589C84.6115 73.8922 84.7869 74.1752 84.9743 74.442L82.4903 73.1282C84.3204 73.1282 86.1585 72.7603 87.6537 71.8265C87.865 71.6931 88.0644 71.5476 88.2518 71.394C88.8578 71.7982 89.4918 72.162 90.1417 72.4854V72.4773ZM81.6251 73.5607C81.7487 73.6941 81.8723 73.8235 81.9959 73.9569C81.3939 73.6214 80.7878 73.2818 80.1858 72.9463C80.6363 73.015 81.0988 73.0676 81.5653 73.0999C81.4896 73.2373 81.4856 73.4152 81.6291 73.5648L81.6251 73.5607ZM72.5464 69.2313C72.6062 69.1827 72.666 69.1383 72.7258 69.0898C72.7776 69.2232 72.8534 69.3444 72.9331 69.4657C72.8055 69.3889 72.6779 69.3081 72.5464 69.2313ZM71.9323 69.68C71.9483 69.7446 71.9762 69.8053 72.032 69.8619C72.658 70.4723 73.28 71.0827 73.906 71.6891C72.9212 71.1635 71.9044 70.6987 70.8518 70.2904C71.2226 70.1166 71.5855 69.9104 71.9323 69.68ZM70.2139 70.8604C70.5847 71.2606 70.9674 71.6486 71.3502 72.0367C70.6285 71.6325 69.8949 71.2525 69.1533 70.8846C69.4763 70.8078 69.7992 70.7148 70.1142 70.6016C70.1142 70.6946 70.1461 70.7876 70.2139 70.8604ZM67.8016 71.0948C68.4436 71.6446 69.0855 72.1984 69.7274 72.7482C68.7506 72.2025 67.7737 71.6567 66.7969 71.111C67.1318 71.1272 67.4667 71.1191 67.8016 71.0948ZM64.9867 70.8361C65.0066 70.8684 65.0266 70.9008 65.0625 70.9291C65.8958 71.6204 66.7331 72.3076 67.5664 72.9988C66.1191 72.1863 64.6677 71.3859 63.2084 70.5936C63.2882 70.4925 63.3639 70.3834 63.4198 70.2621C63.9261 70.5087 64.4484 70.6987 64.9827 70.8361H64.9867ZM62.5346 71.1474C62.9971 71.6325 63.4756 72.1054 63.962 72.5582L62.3233 71.5961C61.9804 71.394 61.5578 71.9074 61.8887 72.1701C62.2555 72.4652 62.6223 72.7522 62.9891 73.0473C62.0442 72.5946 61.0833 72.1782 60.1024 71.7982C60.9677 71.7052 61.8648 71.5274 62.5346 71.1474ZM59.608 72.3035C60.0506 72.6795 60.4892 73.0554 60.9278 73.4354C59.8552 72.9059 58.7667 72.4208 57.6463 71.9842C57.5985 71.964 57.5507 71.9559 57.5108 71.9599C57.6543 71.9518 57.8018 71.9478 57.9454 71.9357C58.376 71.9074 58.9621 71.8912 59.6001 71.8427C59.4924 71.9761 59.4645 72.1823 59.608 72.3035ZM57.3832 72.6188C57.4071 72.6391 57.435 72.6552 57.459 72.6754C56.9885 72.4288 56.518 72.1863 56.0475 71.9478C56.5339 71.9761 57.0243 71.9761 57.5148 71.9559C57.2277 71.968 57.136 72.4288 57.3872 72.6188H57.3832ZM54.1735 71.6931C55.0946 72.4854 56.0196 73.2778 56.9406 74.0701C54.9391 72.9261 52.9375 71.7821 50.936 70.638C50.9679 70.5329 50.9918 70.4278 51.0117 70.3187C51.9726 71.0099 53.0452 71.4425 54.1735 71.6931ZM50.6808 71.2929C51.2828 71.8144 51.8929 72.3197 52.5149 72.8129C51.8889 72.5056 51.2549 72.2065 50.617 71.9195C50.3219 71.7861 50.0149 72.1257 50.2581 72.3884C51.1473 73.3465 52.0803 74.2277 53.0611 75.0443C52.3913 74.729 51.7174 74.4258 51.0316 74.1348C50.7605 74.0216 50.5372 74.442 50.7486 74.6279C51.9088 75.6466 53.1209 76.5805 54.3769 77.4496L51.9288 76.4673C51.857 76.439 51.7892 76.4551 51.7294 76.4915C50.9519 75.2384 50.4097 73.876 49.6999 72.5865C50.0987 72.2025 50.4376 71.774 50.6808 71.2929ZM52.5189 77.6355C53.7589 78.63 55.0706 79.487 56.4661 80.2268C55.9079 80.0853 55.3617 79.9195 54.8075 79.7215C54.6839 79.677 54.5882 79.778 54.5722 79.8872C53.8227 79.1959 53.1329 78.4481 52.5189 77.6355ZM61.5179 87.863C61.494 87.8226 61.466 87.7821 61.4421 87.7377C61.3424 87.5638 61.2468 87.3738 61.1471 87.1798C61.3823 87.3415 61.6176 87.5032 61.8568 87.6609C61.7132 87.6528 61.5737 87.7457 61.5179 87.863ZM62.8815 90.1308C62.5226 89.5527 62.1718 88.9666 61.8249 88.3804C62.8297 89.2657 63.8783 90.0661 64.9827 90.7857C64.3248 90.5674 63.667 90.3491 63.0051 90.1429C62.9612 90.1308 62.9214 90.1268 62.8815 90.1348V90.1308ZM64.4644 92.6695C64.2411 92.3137 64.0218 91.958 63.7985 91.6023C64.3886 92.0591 64.9907 92.4876 65.6127 92.8918C65.2419 92.8069 64.8671 92.7341 64.4843 92.6735C64.4763 92.6735 64.4724 92.6735 64.4644 92.6735V92.6695ZM65.198 93.8579C65.7961 94.2379 66.3942 94.6098 67.0042 94.9615C66.5935 94.8807 66.1789 94.8201 65.7522 94.7756C65.5688 94.4684 65.3814 94.1611 65.194 93.8579H65.198ZM66.4659 95.9964C67.2355 96.5017 68.017 96.9868 68.8104 97.4557C68.2602 97.3385 67.702 97.2577 67.1358 97.2011C66.9165 96.7968 66.6932 96.3966 66.4659 95.9964ZM67.7857 98.4461C68.0608 98.624 68.3399 98.7978 68.623 98.9636C68.4236 98.9434 68.2203 98.9312 68.0169 98.9232C67.9412 98.7655 67.8654 98.6038 67.7897 98.4461H67.7857ZM69.3606 102.214C69.9428 102.646 70.5408 103.055 71.1509 103.447C70.6644 103.35 70.178 103.261 69.6836 103.192C69.5799 102.865 69.4723 102.537 69.3606 102.214ZM70.1222 104.482C70.4611 104.663 70.796 104.849 71.1349 105.031C70.8917 105.007 70.6445 104.995 70.3893 104.991C70.2856 104.829 70.2019 104.659 70.1222 104.482ZM75.7441 91.6023C75.6882 93.4739 74.7672 95.099 73.2042 96.0934C72.969 96.243 72.8653 96.5664 73.0168 96.817C73.9658 98.4098 74.9227 100.002 75.8677 101.599C76.4498 102.582 76.8365 103.406 75.9315 104.344C75.3493 104.946 74.5878 105.403 73.7943 105.662C72.8733 105.965 71.5735 106.175 70.7761 105.456C70.7442 105.427 70.7202 105.395 70.6923 105.367C71.2904 105.427 71.8725 105.545 72.4666 105.743C72.7019 105.82 72.8494 105.46 72.6341 105.343C71.717 104.829 70.796 104.316 69.879 103.802C69.871 103.778 69.863 103.754 69.855 103.734C70.804 103.887 71.741 104.089 72.6779 104.356C72.965 104.437 73.1444 104.017 72.8813 103.867C71.5615 103.115 70.3215 102.274 69.1294 101.341C69.56 101.365 69.9667 101.438 70.3654 101.567C70.792 101.793 71.2266 101.999 71.6772 102.198C71.6772 102.198 71.6811 102.198 71.6851 102.202C71.7051 102.21 71.725 102.218 71.7449 102.23C72.0161 102.347 72.1676 101.911 71.9403 101.765C71.4658 101.458 70.9993 101.227 70.5169 101.066C69.7753 100.665 69.0656 100.221 68.3798 99.7236C68.3399 99.6387 68.304 99.5497 68.2681 99.4608C69.0775 99.5174 69.8351 99.7074 70.6246 100.039C70.8877 100.152 71.0791 99.6953 70.8199 99.57C69.7035 99.0283 68.6429 98.4219 67.6103 97.7428C68.6071 97.8721 69.564 98.0985 70.5328 98.434C70.792 98.523 70.9555 98.1187 70.7202 97.9853C69.2849 97.1809 67.8933 96.3198 66.5258 95.4062C67.6541 95.5881 68.7027 95.9115 69.7673 96.437C70.1022 96.6028 70.4013 96.1015 70.0624 95.9236C68.6908 95.196 67.3391 94.4401 66.0154 93.6275C66.7411 93.8135 67.4508 94.0439 68.1485 94.3269C68.5831 94.5371 69.0217 94.7392 69.4683 94.9292C69.4723 94.9292 69.4802 94.9332 69.4842 94.9373C69.5121 94.9494 69.5361 94.9615 69.56 94.9696C69.8989 95.1111 70.1421 94.529 69.8112 94.3673C69.548 94.2379 69.2809 94.1207 69.0137 94.0035C67.4229 93.2556 65.9357 92.3744 64.5282 91.3274C66.0234 91.8205 67.5066 92.3542 68.9739 92.9282C69.3208 93.0616 69.5719 92.4673 69.229 92.3137C67.2833 91.4567 65.4652 90.4016 63.7706 89.1404C64.8591 89.6134 65.9476 90.0904 67.0361 90.5633C67.4229 90.7331 67.7658 90.1712 67.375 89.9772C65.6685 89.1364 64.0258 88.2066 62.4309 87.1838C63.0569 87.3981 63.6709 87.6366 64.277 87.8953C65.0106 88.2591 65.7483 88.6149 66.4939 88.9625C66.9005 89.1525 67.2594 88.5583 66.8487 88.3481C66.4261 88.1298 66.0034 87.9236 65.5808 87.7215C64.4684 87.1717 63.3679 86.6017 62.2914 85.9873C63.5035 86.4764 64.7076 86.9938 65.8958 87.5436C66.3304 87.7457 66.6932 87.1515 66.2746 86.8847C65.2419 86.2177 64.2012 85.5628 63.1566 84.9079C63.9899 85.1505 64.8113 85.4415 65.6247 85.7973C65.8041 85.8741 65.9675 85.8256 66.0752 85.7205C68.623 88.5664 72.1038 90.3976 75.7999 91.3799C75.768 91.4446 75.7481 91.5214 75.7441 91.6103V91.6023ZM99.9342 83.1292C98.8975 86.1207 95.4685 89.3304 92.1712 87.677C91.8841 87.5355 91.4814 87.6406 91.4016 87.9923C90.7717 90.9029 87.5461 91.3314 85.09 91.3395C82.3548 91.3516 79.5957 91.1657 76.9203 90.5593C72.1596 89.484 67.6342 86.9534 65.0984 82.5997C64.9548 82.3571 64.6319 82.2642 64.3886 82.4097C61.49 84.1479 58.049 82.6765 55.577 80.7482C55.6408 80.6836 55.6647 80.5744 55.581 80.4855C55.0427 79.9236 55.3139 80.2955 56.0036 80.5461C56.6456 80.7765 57.3473 80.8695 58.0132 80.9827C58.2325 81.0191 58.4199 80.6957 58.1806 80.5825C56.4701 79.778 54.8713 78.7957 53.3841 77.6436C54.5643 78.1247 55.7485 78.6057 56.9287 79.0868C57.2317 79.2081 57.4111 78.727 57.144 78.5653C55.6129 77.6517 54.1576 76.6411 52.7621 75.5375C53.9263 76.0792 55.0667 76.6613 56.187 77.2919C56.6535 77.5789 57.124 77.8579 57.6144 78.1247C57.9414 78.3025 58.2285 77.8094 57.9055 77.6194C55.6847 76.3905 53.6552 74.9028 51.8331 73.1484C53.719 74.0539 55.5611 75.0403 57.3433 76.1439C57.6902 76.35 58.0052 75.8043 57.6583 75.5981C56.3545 74.7937 55.0906 73.9488 53.8665 73.0433C55.7524 74.1226 57.6344 75.202 59.5203 76.2854C59.8233 76.4592 60.1862 76.0226 59.9031 75.78C58.7947 74.8301 57.6822 73.8801 56.5738 72.9342C58.2205 73.8033 59.8393 74.7209 61.4381 75.679C61.8249 75.9094 62.1279 75.3394 61.781 75.0807C61.2069 74.6482 60.6367 74.2156 60.0626 73.7831C61.2587 74.349 62.4309 74.9716 63.5673 75.6669C63.8982 75.869 64.3009 75.3758 63.9899 75.109C63.2443 74.4703 62.4947 73.8397 61.7451 73.209C63.3161 73.9165 64.8232 74.7371 66.2905 75.6709C66.6214 75.8811 67.0361 75.3637 66.7171 75.109C66.5497 74.9716 66.3782 74.8381 66.2108 74.7007C66.7371 75.0079 67.2634 75.3152 67.7897 75.6224C68.1844 75.8528 68.5153 75.2626 68.1445 75.012C66.8128 74.1065 65.5728 73.1039 64.4006 72.0206C66.4978 73.1767 68.5831 74.345 70.6565 75.5456C70.9834 75.7356 71.3821 75.2586 71.0711 74.9998C70.2218 74.2965 69.3726 73.5931 68.5193 72.8856C69.9029 73.6658 71.2824 74.446 72.658 75.2384C73.0168 75.4445 73.4514 74.9271 73.1165 74.636C72.2792 73.9084 71.4339 73.1888 70.5847 72.4693C71.8765 73.1848 73.1325 73.9569 74.3565 74.8018C74.7114 75.0484 75.154 74.4784 74.823 74.1914C73.894 73.3909 73.0009 72.5542 72.1317 71.6891C73.7306 72.4288 75.2377 73.3222 76.6811 74.3733C77.0519 74.6441 77.4865 74.0499 77.1675 73.7346C76.4897 73.0716 75.8079 72.4086 75.13 71.7416C76.7568 72.728 78.3796 73.7184 80.0063 74.7007C80.425 74.9554 80.7559 74.4056 80.4928 74.062C80.4728 74.0377 80.4569 74.0175 80.437 73.9933C81.5853 74.636 82.7336 75.2788 83.8819 75.9215C84.2806 76.1439 84.6833 75.6224 84.3683 75.2828C84.2048 75.109 84.0413 74.9352 83.8779 74.7613L86.7526 76.2854C87.2271 76.536 87.562 75.8932 87.1593 75.5779C86.5413 75.0969 86.0588 74.5754 85.6402 73.965C86.6489 74.2399 87.578 74.6643 88.483 75.2707C88.8897 75.5415 89.2605 74.9594 88.9735 74.6239C88.6226 74.2075 88.2677 73.7912 87.9169 73.3748C88.3196 73.488 88.6944 73.6497 89.0532 73.872C89.3283 74.1186 89.6234 74.3531 89.9663 74.5633C90.353 74.8018 90.8076 74.2318 90.4607 73.9165C90.4487 73.9043 90.4367 73.8963 90.4248 73.8882C91.2661 74.349 92.0954 74.8341 92.9088 75.3515C93.1839 75.5456 93.471 75.7315 93.77 75.9054C94.2285 76.1681 94.6153 75.4849 94.1807 75.1939C93.8976 75.0039 93.6065 74.822 93.3195 74.6401C92.9646 74.3894 92.6337 74.1186 92.3187 73.8275C93.8378 74.6724 95.341 75.5456 96.8242 76.4551C97.2109 76.6896 97.6774 76.1156 97.3186 75.8083C97.1591 75.6749 96.9996 75.5375 96.8401 75.4041C97.51 75.6547 98.1639 75.9498 98.8138 76.3096C99.2723 76.5643 99.683 75.8528 99.2244 75.5981C98.0004 74.923 96.7723 74.446 95.4287 74.1105C96.4414 74.2762 97.486 74.3531 98.4589 74.2116C98.4749 74.2843 98.5107 74.3571 98.5666 74.4299C100.508 76.8392 100.939 80.2106 99.9302 83.1171L99.9342 83.1292ZM117.091 59.3151C117.043 60.9725 116.589 62.8967 115.125 63.8588C113.937 64.635 112.127 64.7562 111.186 63.5233C110.843 63.0746 110.101 63.4627 110.408 63.9841C111.417 65.6901 112.107 67.6385 112.179 69.6395C112.215 70.6744 112.063 71.9074 111.114 72.5056C109.922 73.2575 108.798 72.065 108.044 71.2525C107.629 70.8038 107.043 71.4506 107.394 71.9114C108.949 73.9407 106.979 76.3096 104.822 76.4026C102.857 76.4875 101.294 75.0888 100.329 73.4799C100.927 73.011 101.338 72.3318 101.31 71.5112C101.302 71.305 101.266 71.111 101.21 70.925C103.2 71.7457 105.289 71.778 107.055 69.8538C109.001 67.7315 108.905 64.7724 107.741 62.3308C109.902 63.3616 112.649 63.6688 113.774 61.0251C115.014 58.1145 112.677 55.5435 110.432 54.0882C109.982 53.7971 109.571 54.5207 110.014 54.8118C111.788 55.972 113.702 57.8072 113.156 60.1842C112.394 63.495 108.642 62.1084 106.788 60.8108C106.457 60.5763 105.983 61.0453 106.222 61.3848C107.841 63.685 108.523 66.9796 106.461 69.2515C104.551 71.3616 102.243 70.727 100.193 69.5021C99.7627 69.1342 99.2603 68.8311 98.8018 68.5723C98.3353 68.3096 97.9765 68.9766 98.3911 69.2798C98.8138 69.591 99.2484 69.8861 99.6989 70.157C100.353 70.727 100.795 71.4587 100.317 72.3359C99.5394 73.7669 97.4223 73.5526 96.0746 73.4233C94.2883 73.2535 92.5739 72.8007 90.9272 72.1499C90.8674 72.1176 90.8115 72.0852 90.7517 72.0529C90.6999 72.0246 90.6441 72.0165 90.5883 72.0125C89.9104 71.7335 89.2406 71.4223 88.5827 71.0787C89.7829 69.8861 90.2892 68.2045 89.7709 66.6279C89.8068 66.5713 89.8307 66.5026 89.8347 66.4177C90.0101 63.1797 94.1448 62.3954 95.5124 65.302C95.7197 65.7426 96.3816 65.4273 96.27 64.9786C95.8992 63.4707 96.3617 61.9225 97.3585 60.8553C98.0682 60.4672 98.754 60.0508 99.4198 59.6102C99.8066 59.3555 99.5713 58.6885 99.0969 58.83C98.3074 59.0645 97.6096 59.4808 97.0355 60.0185C92.219 62.5167 85.8715 63.5961 82.2431 58.6036C82.0876 58.3894 81.8045 58.3166 81.5972 58.5187C79.5917 60.5278 76.1986 60.4066 74.3087 58.3045C74.1651 58.1428 73.902 58.1589 73.7545 58.3045C72.0121 60.0023 69.4324 60.4672 67.2275 59.7032C67.2195 59.6991 67.2155 59.6951 67.2076 59.691C66.9085 59.5132 66.6095 59.3838 66.3065 59.303C65.816 59.0402 65.3535 58.7087 64.9389 58.3085C64.7594 58.1347 64.4524 58.163 64.3248 58.3894C62.6941 61.3606 59.3568 62.355 56.203 62.5369C53.2086 62.7108 49.6401 62.8725 47.0365 61.1463C46.7534 60.9604 46.3786 61.2676 46.4703 61.587C47.1521 63.875 44.6083 65.0513 42.8819 65.5809C41.0917 66.1307 39.2456 66.2641 37.3916 66.07C36.957 66.0256 36.8653 66.7492 37.2879 66.8422C39.3134 67.2868 41.618 67.9255 42.5071 70.0276C42.6387 70.3389 43.173 70.254 43.2288 69.9306C44.2455 64.2873 52.0404 64.2954 55.888 66.4905C56.0355 66.5754 56.2787 66.5713 56.3904 66.4258C58.3002 64.0124 61.175 62.5652 64.2172 62.3752C67.4308 62.1731 70.477 63.3171 73.1883 64.9786C73.3358 65.2979 73.8661 65.3626 73.9618 64.9341C74.0176 64.6794 74.1093 64.4531 74.221 64.2469C74.2608 64.1984 74.2927 64.1458 74.3127 64.0892C75.6843 61.9265 79.9864 62.4682 81.988 62.8725C84.5995 63.402 89.3921 64.6188 89.1688 68.16C88.9495 71.6567 84.3364 72.3561 81.677 72.2591C80.1698 72.2065 78.6746 71.8993 77.2592 71.3697C76.2305 70.9857 73.595 69.9832 73.1684 68.6734C73.1963 68.6451 73.2282 68.6208 73.2561 68.5925C73.6707 68.1762 73.0288 67.5253 72.6181 67.9458C70.182 70.4076 66.3423 70.9291 63.3599 69.1868C63.045 69.0049 62.6901 69.2393 62.6702 69.587C62.6104 70.6178 60.8122 70.6704 60.1024 70.7714C58.9302 70.9372 57.75 71.0787 56.5658 71.0665C54.5204 71.0463 52.4989 70.537 50.9399 69.1342C50.6688 68.8917 50.1664 69.0413 50.1864 69.4495C50.298 71.9478 47.4153 73.2939 45.4656 74.0175C43.4959 74.7492 41.3947 75.0847 39.2974 74.9958C37.4354 74.919 35.2345 74.5552 33.9068 73.0837C32.8941 71.9599 32.7984 70.2419 33.6357 69.0898C34.1141 68.8796 34.5806 68.6289 35.0152 68.3298C35.394 68.0711 35.0631 67.489 34.6564 67.7072C31.7816 69.2353 28.2131 69.2474 25.4341 67.4768C23.8751 66.4824 22.4477 64.8896 22.4038 62.9331C22.356 60.8633 23.8352 58.9311 25.0713 57.4313C25.3025 57.1524 24.9118 56.7441 24.6685 57.023C23.3488 58.5915 21.1479 57.6375 20.3066 56.0771C19.5131 54.6056 19.5251 52.6895 19.8999 51.1008C20.0355 50.5349 20.2388 50.0053 20.502 49.5202C20.797 49.2696 21.0043 48.9583 21.1479 48.5621C21.6224 47.9881 22.1925 47.5151 22.8265 47.1675C22.9979 47.0947 23.1415 47.03 23.2411 46.9815C23.293 46.9532 23.3448 46.929 23.3966 46.9007C24.5808 46.4237 25.9405 46.359 27.3001 46.8441C27.4994 46.9168 27.7426 46.6864 27.6629 46.4762C26.5943 43.7273 29.3694 41.2938 31.4427 40.0406C33.5958 38.7389 36.0878 38.0638 38.5917 38.0679C43.4162 38.0719 47.8977 40.8329 50.3259 45.0169C50.5731 45.4454 51.1792 45.1503 51.0875 44.6895C50.3339 40.9219 51.7015 36.7945 55.262 35.0441C58.5514 33.4271 62.738 34.8056 63.9899 38.4196C64.1454 38.8643 64.8671 38.8279 64.8472 38.3024C64.7315 35.3311 67.6382 33.4554 70.3215 34.3448C72.8613 35.1856 73.9937 37.7849 73.8661 40.3195C73.8462 40.4691 73.8302 40.6227 73.8302 40.7804C73.8302 41.3665 74.6316 41.3261 74.7034 40.7804C74.7273 40.5904 74.7433 40.3964 74.7553 40.2064C75.1739 38.1447 78.1404 38.5166 79.6714 39.0623C81.4218 39.6849 83.0286 40.6268 84.4839 41.791C84.9185 42.1387 85.4488 41.6131 85.09 41.1765C84.137 40.0002 85.2415 38.5287 86.6131 38.933C87.1314 39.0866 87.3547 38.266 86.8363 38.1124C86.1067 37.8981 85.4568 38.0113 84.9584 38.3266C84.7112 38.3711 84.46 38.4277 84.1968 38.4721C83.1442 38.6581 82.0518 38.7794 80.9952 38.5287C78.87 38.0194 78.1204 36.4913 77.7297 34.4741C77.6619 34.1305 77.2432 34.1669 77.0758 34.3892C76.5933 35.032 75.8796 35.1856 75.2257 35.0118C74.9905 34.8299 74.7513 34.648 74.516 34.4661C74.0495 33.3705 74.0854 31.9921 74.5838 30.8117C75.4689 28.7136 77.3668 27.3069 79.173 26.0618C79.6315 25.7465 79.2129 24.9905 78.7305 25.2977C78.5032 25.4433 78.1802 25.6616 77.8134 25.8758C77.642 25.9648 77.4665 26.0577 77.2911 26.1547C76.4099 26.5832 75.441 26.8056 75.0264 25.9405C74.7154 25.2977 74.8111 24.5903 74.3685 23.9799C74.1572 23.6888 73.603 23.7454 73.6309 24.182C73.7624 26.3205 73.1923 28.4509 71.8486 30.1325C71.2266 30.9127 70.473 31.5555 69.6238 32.077C69.0536 32.4246 68.4236 32.6429 67.8296 32.9218C66.3982 33.2371 64.8631 33.0593 63.978 31.7131C63.962 31.6889 63.95 31.6687 63.9381 31.6444C63.3081 29.6191 64.0457 26.3771 64.3408 24.9743C64.4126 24.6388 63.97 24.2871 63.7188 24.6065C63.1845 25.2735 62.8057 26.9835 61.777 26.9875C61.7212 26.9875 61.6774 27.0077 61.6415 27.036C61.474 26.8905 61.3464 26.6762 61.2946 26.3852C61.171 25.8556 60.4055 26.086 60.4972 26.6075C60.5131 26.6843 60.5291 26.7571 60.549 26.8298C60.8919 28.3134 61.2547 30.1608 60.1782 31.4019C59.1973 32.5378 57.4789 32.8006 56.0674 32.6752C53.2804 32.4246 50.7685 30.4761 49.7916 27.8283C49.5883 27.3351 48.7909 27.5332 48.9822 28.0547C49.6122 29.5908 48.6952 31.5919 46.8411 30.9774C46.3268 30.8076 46.1035 31.6282 46.6179 31.798C47.9336 32.2387 48.8706 33.5525 48.5476 34.9875C48.2526 36.3013 47.1761 37.0169 45.944 37.2796C43.9305 37.7081 41.5103 37.5666 39.5885 36.8188C34.5607 34.8582 34.5687 29.0249 35.087 24.4569C35.1388 24.0001 34.5328 23.9597 34.3215 24.2467C33.3566 25.5605 31.682 25.1926 31.0679 23.9354C31.0679 23.9314 31.0679 23.9273 31.0679 23.9233C30.8766 23.3371 30.733 22.7267 30.7051 22.1042C30.7051 21.9102 30.7171 21.7161 30.741 21.518C30.7729 21.2553 30.434 21.1866 30.2785 21.324C29.7721 21.7565 29.6047 22.4721 29.7482 23.1148C29.5847 23.8465 30.426 24.9137 31.2793 25.6737C31.5823 26.0375 31.8813 26.4013 32.1485 26.7975C32.8183 27.7919 33.3765 28.843 33.7832 29.9708C34.5886 32.2184 34.9873 35.1533 33.4961 37.2109C32.0089 39.2604 29.0983 39.3534 26.9811 38.3266C24.6805 37.2109 23.1415 35.0037 21.8177 32.8814C21.5307 32.4206 20.8369 32.8289 21.0961 33.3099C21.6144 34.2761 20.6136 35.0684 19.7524 35.0401C19.6009 35.036 19.4533 35.0118 19.3098 34.9754C18.8074 34.7086 18.3489 34.4782 17.9741 34.2922C17.5116 34.0659 17.1488 34.6924 17.5714 34.9875C17.994 35.2826 18.4924 35.5535 19.0108 35.7111C22.6112 37.5949 28.6876 41.4151 24.2977 44.7299C20.7532 47.406 15.3904 48.0245 12.9742 43.5576C12.7948 43.2261 12.2246 43.4525 12.3602 43.8203C12.5914 44.4631 12.9423 45.0331 13.3809 45.5262C10.5819 45.0169 7.90653 43.602 6.27179 41.1765C4.96002 39.2281 4.57326 36.7783 5.14343 34.5267C5.20722 34.4661 5.27102 34.4054 5.33481 34.3448C5.50227 34.1952 5.49828 33.9325 5.37468 33.7586C5.49031 33.4393 5.62189 33.124 5.77738 32.8208C6.44324 31.5151 7.49186 30.367 8.83155 29.7687C9.25419 29.5787 9.66486 29.4898 10.0556 29.4817C11.3993 30.4559 12.4479 31.7293 12.9383 33.3705C13.4407 35.0482 13.1417 36.7339 13.038 38.4398C12.9264 38.7147 12.8107 38.9855 12.6792 39.2483C12.0452 39.7051 11.6026 40.4408 11.4392 41.2291C11.3554 41.6374 11.8937 42.0699 12.2007 41.6778C12.5914 41.1806 12.9423 40.647 13.2493 40.0932C13.7278 39.7698 14.3019 39.6566 14.7884 39.8264C15.0914 40.3721 15.4502 40.8936 15.8729 41.3746C16.1998 41.7465 16.6863 41.3382 16.6225 40.934C16.5148 40.267 16.144 39.6808 15.6336 39.2887C15.1592 37.6919 14.8322 36.075 14.7844 34.3771C14.7325 32.5216 14.8203 29.9587 15.9127 28.366C17.0371 26.7207 19.6248 26.7692 21.3233 27.2543C23.1335 27.7677 24.6765 28.94 25.6693 30.557C25.9405 31.0017 26.71 30.7227 26.5306 30.1891C26.1637 29.0855 26.5864 28.0102 27.6111 27.4766C27.8623 27.3432 27.8942 27.0966 27.8064 26.8945C27.8782 26.652 27.6868 26.4013 27.4675 26.3124C26.7578 26.0254 26.0082 26.276 25.5218 26.8541C25.3065 26.7773 25.1071 26.6601 24.9476 26.5145C24.3934 26.0052 24.3376 25.1846 24.4612 24.4812C24.6845 23.2078 25.458 22.0314 26.2674 21.0572C27.8224 19.1855 30.0991 17.7302 32.5711 17.6898C38.2289 17.5968 40.6172 23.8303 41.4704 28.4953C41.598 29.134 42.539 28.8592 42.4274 28.2285C42.1642 26.943 42.6148 25.6939 43.476 24.845C44.2335 24.5378 45.0071 24.0284 45.5732 23.7657C45.7806 23.6686 45.8444 23.4988 45.8164 23.3331C45.964 23.1593 46.0916 22.9572 46.1833 22.7227C46.3467 22.3063 45.8364 22.0678 45.5214 22.2053C44.724 22.565 43.8787 22.848 42.9935 22.8157C42.7782 22.8076 42.3955 22.7469 42.0087 22.6257C41.6538 22.3629 41.3309 22.0678 41.0358 21.704C40.9521 21.2149 40.9162 20.7298 40.8963 20.374C40.8046 18.6681 41.1674 16.9501 41.8851 15.4099C43.2966 12.3659 45.956 10.0819 49.1657 9.2249C49.7797 9.05916 49.5205 8.10514 48.9025 8.25876C48.2287 8.4245 47.5788 8.65896 46.9568 8.94597C46.9687 8.90959 46.9767 8.87321 46.9687 8.83279C46.7614 7.83025 46.7773 6.79538 46.9927 5.81711C47.0325 5.74838 47.0565 5.66349 47.0525 5.5786C47.5947 3.48865 49.074 1.69784 51.2988 1.10359C54.5962 0.222336 58.077 2.51846 59.2093 5.63924C59.3369 5.99093 59.8712 6.14859 60.0666 5.75243C62.0522 1.79081 70.1341 1.06317 71.4539 5.78881C71.3502 6.03136 71.3781 6.26986 71.5974 6.50028C71.6014 6.53667 71.6094 6.57305 71.6134 6.60943C71.6134 6.62156 71.6174 6.62964 71.6174 6.63773C70.8359 6.90453 70.1022 7.27644 69.4762 7.7009C67.0999 9.31384 65.5728 11.8404 64.2531 14.3548C63.8623 14.0354 63.4397 13.7929 62.9891 13.6271C62.2156 13.2957 61.3424 13.2108 60.4892 13.4452C59.915 13.6029 60.1583 14.4559 60.7324 14.3427C61.3624 14.2173 61.9644 14.2537 62.5226 14.4356C63.1845 14.6903 63.7627 15.1795 64.1374 15.8303C64.907 17.1724 64.6637 18.8298 64.0417 20.1719C63.7866 20.7176 64.592 21.1987 64.8432 20.6489C65.6286 18.947 65.8798 16.8652 64.8352 15.2158C66.0353 12.9076 67.3511 10.5468 69.4045 8.90555C71.5855 7.16729 74.0136 6.84794 76.6372 7.5109C76.9362 7.58771 77.0798 7.19559 76.8405 7.0258C75.6125 6.14859 74.0535 6.04348 72.5663 6.37092C72.5424 6.14455 72.5025 5.92625 72.4547 5.71605C73.1325 5.24308 74.532 4.64883 74.6516 4.61245C75.4131 4.3699 76.2066 4.24055 77.004 4.22033C78.6467 4.17991 80.3094 4.58416 81.7288 5.42903C83.2001 6.30625 85.3292 8.31535 84.5916 10.2719C84.452 10.6398 84.2168 10.9066 83.9217 11.1087C81.8364 11.0198 79.7233 11.6706 78.0367 12.9723C77.63 13.2835 77.8413 14.0233 78.4075 13.8616C80.098 13.3806 81.8205 12.9521 83.4871 12.3861C83.7383 12.3012 83.9696 12.2002 84.1849 12.0789C85.1059 12.1516 86.019 12.3902 86.8762 12.8146C89.3602 14.0476 91.0069 16.5943 91.278 19.3594C90.6441 19.9374 90.1178 20.6934 89.743 21.5463C88.7382 23.8222 88.6465 26.4296 89.3961 28.7743C89.2127 28.7621 89.0253 28.7743 88.8339 28.8187C88.7462 28.8389 88.6664 28.8632 88.5867 28.8955C88.6704 27.4726 88.5229 26.0577 87.8929 24.6792C86.932 22.5772 85.3252 20.6408 83.4552 19.3109C80.5964 17.2815 76.5574 16.9541 73.8821 19.1855C74.3366 16.8449 74.4124 14.4114 72.8893 12.4265C72.5902 12.0344 71.9004 12.564 72.2035 12.9642C73.902 15.1956 73.264 18.1102 72.6261 20.6247C72.4945 21.1502 73.1684 21.3968 73.4554 20.9804C75.8437 17.5443 80.5885 18.1426 83.4911 20.4913C84.9105 21.6393 86.1226 23.1512 86.94 24.7965C87.7574 26.4377 87.8092 28.0992 87.5899 29.7889C87.2071 30.4721 87.1115 31.3736 87.1753 32.1214C87.2191 32.6106 87.9607 32.7925 88.0763 32.2467C88.2159 31.5919 88.3435 30.937 88.4392 30.2861C88.7741 29.9304 89.3602 29.5989 89.751 29.7242C89.8865 30.0355 90.034 30.3427 90.1975 30.6378C90.4168 31.03 91.0867 30.8723 91.0587 30.4034C91.0348 29.9587 90.8514 29.5868 90.5763 29.3038C89.6274 27.0764 89.5715 24.5014 90.4686 22.2295C90.9391 21.037 91.7406 19.8445 92.9407 19.327C94.2883 18.7449 95.7197 19.2623 96.8521 20.091C100.879 23.0299 101.912 28.94 100.552 33.5161C100.401 34.0214 101.154 34.3569 101.401 33.8799C102.466 31.8385 104.922 32.3155 106.481 33.4312C107.908 34.4539 108.929 36.0224 109.459 37.696C110.46 40.8451 109.743 44.1154 108.231 46.9451C107.845 47.2847 107.558 47.7415 107.47 48.2751C107.39 48.7643 107.988 49.0634 108.275 48.6187C108.503 48.267 108.714 47.9073 108.917 47.5394C109.372 47.1756 110.006 47.0422 110.548 47.3575C111.577 47.9558 111.385 49.7466 111.23 50.7491C111.102 51.5859 110.835 52.6935 110.062 53.1625C109.109 53.7405 108.048 52.9846 107.071 52.8876C106.218 52.7986 105.596 53.1261 105.181 53.688C105.006 52.932 104.771 52.1923 104.452 51.4767C104.424 51.4121 104.392 51.3514 104.364 51.2868C104.364 51.2302 104.344 51.1736 104.316 51.121C103.562 49.7304 102.933 48.4651 102.909 46.836C102.893 45.7284 103.168 44.7339 103.554 43.7597C103.794 43.2827 104.033 42.8016 104.24 42.3044C104.388 41.9446 103.834 41.6333 103.598 41.9244C102.889 42.7895 102.015 43.4282 100.939 43.7516C100.409 43.9093 99.683 44.0265 99.0171 43.9497C98.8895 43.885 98.7619 43.8163 98.6383 43.7314C97.9685 43.2705 97.494 42.5874 97.1272 41.8638C96.9916 41.601 96.6368 41.795 96.6806 42.0538C96.6806 42.0699 96.6886 42.0861 96.6926 42.1063C96.6607 42.1508 96.6448 42.2074 96.6527 42.2721C97.0275 44.9724 96.6208 47.6283 95.5563 49.9325C95.3609 50.2478 95.1775 50.5712 94.9981 50.8946C94.5754 51.4282 94.1966 51.9861 93.8777 52.5359C93.8338 52.6127 93.7899 52.6895 93.7461 52.7703C92.6097 54.1124 91.1863 55.2241 89.5038 55.9922C88.9934 56.0407 88.4751 56.2307 87.9966 56.5824C87.7813 56.74 87.7614 57.0432 87.885 57.2332C87.885 57.4556 88.1043 57.6658 88.3555 57.5202C90.0939 56.5015 91.6887 58.0619 91.8641 59.7921C91.924 60.3985 92.7852 60.4227 92.8131 59.7921C92.8928 57.9528 93.3195 55.9275 94.1328 54.1003C94.5395 53.409 94.9622 52.7461 95.2971 52.1357C95.3768 51.9942 95.4526 51.8487 95.5363 51.7031C96.3617 50.6197 97.3784 49.7183 98.6025 49.1362C101.417 47.7941 103.22 50.5874 103.969 52.9886C104.26 53.9184 104.42 54.8684 104.507 55.8264C104.292 57.6253 104.46 59.5293 104.691 61.2999C104.695 61.3404 104.703 61.3767 104.707 61.4172C104.779 61.9508 105.512 61.7487 105.56 61.2999C105.727 59.7355 105.739 58.1347 105.576 56.5581C105.548 56.1135 105.508 55.6688 105.448 55.2282C105.504 54.8643 105.6 54.5126 105.795 54.2499C106.401 53.4373 107.342 53.8537 108.12 54.0639C110.07 54.5975 111.377 53.6516 111.912 51.7274C112.346 50.1629 112.613 47.41 110.875 46.5449C110.44 46.3307 109.962 46.2741 109.503 46.3509C110.125 44.9643 110.548 43.4969 110.715 42.0093C112.318 42.652 113.351 44.0912 114.109 45.6273C114.95 47.3332 115.951 50.2276 113.63 51.2382C113.267 51.3959 113.411 51.9376 113.734 52.0386C116.593 52.9159 117.159 56.7562 117.083 59.3434L117.091 59.3151Z" fill="var(--fill-0, #3C3C3B)"/>
<path id="Vector_3" d="M98.1559 36.2932C97.8648 36.2245 97.5618 36.176 97.2468 36.1437C95.8752 35.5211 96.0547 32.9057 96.3059 31.6848C96.4175 31.1391 95.648 30.9208 95.4805 31.4544C94.9861 33.0229 94.4917 35.5373 93.3235 37.1139C93.0962 37.3039 92.9008 37.5181 92.7334 37.7687C92.2828 38.173 91.7525 38.4438 91.1146 38.5206C90.9073 38.5004 90.6959 38.5045 90.4727 38.5328C90.3371 38.5489 90.2334 38.6096 90.1617 38.6904C90.0699 38.7268 89.9822 38.7713 89.8985 38.836C89.8188 38.8966 89.7869 39.0098 89.8666 39.0866C89.9822 39.1998 90.0939 39.2685 90.2015 39.3211C90.2693 39.3736 90.357 39.41 90.4687 39.4221C90.4766 39.4221 90.4806 39.4221 90.4886 39.4221C90.6002 39.4545 90.7238 39.4868 90.8634 39.5393C91.5452 39.79 92.0954 40.2468 92.55 40.8127C92.8849 41.2291 93.3952 40.7561 93.3394 40.3478C93.172 39.1755 94.5555 38.177 95.4247 37.7081C96.2461 37.2675 97.0873 37.1381 98.0004 37.2554C98.2795 37.2917 98.439 37.0411 98.447 36.7905C98.4988 36.5843 98.4191 36.3579 98.1519 36.2973L98.1559 36.2932Z" fill="var(--fill-0, #3C3C3B)"/>
<path id="Vector_4" d="M63.7348 7.22388C61.9206 7.07027 60.25 7.6443 58.8385 8.64683C58.3082 8.71555 57.7859 8.67513 57.2955 8.31131C56.7692 7.91919 56.3904 7.19155 56.0435 6.64177C55.7804 6.2254 55.0627 6.48007 55.2261 6.99346C55.7844 8.74789 56.4422 10.8338 55.5531 12.5519C55.5172 12.6206 55.4773 12.6893 55.4415 12.758C55.3777 12.8672 55.3059 12.9723 55.2301 13.0733C54.64 13.8576 53.9861 14.1365 53.3243 14.1082C52.2996 13.7484 51.3945 13.1299 50.4814 12.5276C50.3818 12.4306 50.2821 12.3336 50.1864 12.2365C50.0787 12.1274 49.9591 12.0991 49.8435 12.1153C49.4647 11.8768 49.078 11.6544 48.6752 11.4604C48.6513 11.4442 48.6314 11.428 48.6075 11.4159C48.5516 11.3795 48.4998 11.3634 48.448 11.3553C48.3483 11.3108 48.2486 11.2663 48.1489 11.23C47.8738 11.1249 47.6585 11.4806 47.7861 11.711C48.0851 12.2446 48.5277 12.5559 49.0381 12.7984C49.058 12.8591 49.0979 12.9157 49.1657 12.9561C51.5699 14.4073 53.3442 16.849 53.9383 19.6181C53.9742 19.9213 54.022 20.2245 54.0938 20.5236C54.2294 21.0936 55.0388 20.8429 54.947 20.2851C54.3968 17.9243 55.1305 15.3371 56.2588 13.1744C56.2987 13.1016 56.3346 13.0329 56.3705 12.9601C56.53 12.665 56.6974 12.374 56.8689 12.0951C57.4869 11.1006 58.2644 10.2194 59.1694 9.54022C60.7683 9.29363 62.3711 8.73577 63.8464 8.13344C64.3169 7.9394 64.2531 7.27644 63.7268 7.23197L63.7348 7.22388Z" fill="var(--fill-0, #3C3C3B)"/>
</g>
<defs>
<clipPath id="clip0_0_221">
<rect width="118" height="107" fill="white"/>
</clipPath>
</defs>
</svg>
