<svg preserveAspectRatio="none" width="100%" height="100%" overflow="visible" style="display: block;" viewBox="0 0 365.549 501.708" fill="none" xmlns="http://www.w3.org/2000/svg">
<path id="Vector" d="M330.989 270.567C352.584 243.212 364.448 209.241 365.478 174.466C366.509 139.675 356.183 105.075 337.698 75.6949C319.143 46.1751 291.73 19.2913 258.446 7.28093C240.485 0.804392 221.196 -0.225565 202.274 0.0362893C182.269 0.315601 162.036 1.99147 142.73 7.54279C107.541 17.6678 75.1662 39.4367 48.0848 63.667C21.5975 87.3736 4.31781 117.295 0.736082 152.942C-2.60104 186.267 5.55831 220.71 22.174 249.671C40.9213 282.316 69.7324 308.274 101.758 327.617C118.287 337.585 135.759 345.772 153.737 352.737C158.996 354.78 164.587 356.7 168.693 360.75C172.729 364.73 174.721 370.194 176.678 375.379C179.927 383.933 183.195 392.487 186.514 401.023C186.043 400.971 185.536 401.128 185.151 401.634C176.957 412.807 181.185 425.48 190.201 433.598C190.148 433.738 190.096 433.877 190.061 434.052C188.681 446.324 195.844 458.125 206.31 464.218C204.545 478.654 217.509 490.124 231.172 491.45C233.426 491.677 235.698 491.677 237.951 491.555C237.969 491.555 237.986 491.59 238.021 491.59C255.283 500.092 278.416 505.399 297.163 498.625C309.289 494.244 325.049 480.871 325.381 466.662C330.64 463.903 335.339 460.377 338.886 455.611C346.818 444.997 345.7 429.199 333.138 423.176C337.209 413.138 333.365 400.36 324.105 394.704C330.814 382.781 327.792 363.63 312.154 361.117C312.015 361.099 311.892 361.099 311.752 361.099C310.879 345.615 300.204 331.754 302.807 315.798C305.725 297.975 320.244 284.131 330.954 270.567H330.989ZM187.458 403.38C188.192 405.248 188.908 407.133 189.642 409.019C188.349 408.669 187.056 408.338 185.763 408.006C186.13 406.487 186.689 404.951 187.44 403.38H187.458ZM185.309 410.694C187.947 412.527 190.603 414.256 193.328 415.862C190.62 414.902 187.912 413.959 185.204 412.999C185.204 412.231 185.221 411.462 185.309 410.677V410.694ZM186.182 418.585C185.938 417.869 185.728 417.136 185.571 416.385C188.716 418.009 191.878 419.615 195.023 421.221C192.088 420.278 189.153 419.388 186.182 418.568V418.585ZM195.407 442.553C200.701 445.312 206.03 448.017 211.359 450.741C207.341 449.623 203.322 448.506 199.304 447.354C198.517 447.127 198.028 447.948 198.273 448.559C197.137 446.673 196.194 444.648 195.425 442.553H195.407ZM200.719 452.102C199.88 451.055 199.111 449.955 198.395 448.786C198.448 448.855 198.517 448.925 198.605 448.978C200.929 450.409 203.287 451.701 205.663 452.888C204.039 452.591 202.414 452.312 200.771 452.085C200.736 452.085 200.719 452.085 200.684 452.085L200.719 452.102ZM205.034 456.571C204.72 456.31 204.405 456.03 204.108 455.751C206.223 456.676 208.337 457.549 210.468 458.387C208.651 457.828 206.834 457.235 205.034 456.554V456.571ZM223.677 463.205C223.677 463.205 223.607 463.205 223.572 463.205C217.684 463.275 212.408 461.634 207.987 458.771C213.124 460.604 218.331 462.088 223.677 463.205ZM210.992 468.425C210.748 467.691 210.503 466.941 210.293 466.173C210.678 466.33 211.062 466.452 211.447 466.592C211.377 467.011 211.569 467.465 212.093 467.674C213.997 468.425 215.919 469.14 217.824 469.874C215.797 469.367 213.77 468.879 211.744 468.337C211.464 468.268 211.202 468.32 210.975 468.425H210.992ZM215.535 477.066C214.155 475.285 212.967 473.278 211.988 471.043C213.805 471.881 215.622 472.684 217.457 473.417C217.3 473.382 217.16 473.348 217.003 473.33C215.552 473.016 214.941 475.146 216.391 475.565C218.977 476.315 221.563 477.048 224.149 477.799C221.301 477.52 218.435 477.258 215.57 477.083C215.57 477.083 215.552 477.083 215.535 477.083V477.066ZM285.982 495.675C280.111 494.645 274.415 493.231 268.789 491.468C275.883 492.55 282.959 493.685 290.018 494.959C288.69 495.256 287.327 495.483 285.982 495.675ZM291.8 494.505C292.149 493.947 292.044 493.144 291.223 493.004C286.296 492.149 281.526 490.979 276.826 489.548C283.151 490.368 289.423 491.52 295.608 493.214C295.696 493.231 295.766 493.214 295.853 493.231C294.945 493.58 294.001 493.894 293.058 494.156C292.638 494.278 292.219 494.366 291.8 494.47V494.505ZM296.901 492.83C297.408 492.184 297.321 491.049 296.29 490.735C295.923 490.63 295.539 490.508 295.172 490.403C296.604 490.56 298.02 490.7 299.452 490.839C300.413 490.944 300.885 489.844 300.57 489.076C301.497 489.198 302.423 489.303 303.349 489.425C301.322 490.752 299.155 491.887 296.901 492.812V492.83ZM311.421 482.46C309.516 484.59 307.385 486.528 305.078 488.221C305.078 488.081 305.078 487.942 305.008 487.784C304.904 487.505 304.816 487.226 304.711 486.947C304.572 486.545 304.24 486.091 303.785 486.021C303.488 485.969 303.191 485.934 302.894 485.882C302.003 485.742 301.392 486.405 301.269 487.086C300.361 486.178 299.12 485.864 297.53 486.213C295.469 485.986 293.407 485.742 291.345 485.515C290.315 485.393 289.878 486.65 290.28 487.4C287.606 487.121 284.933 486.842 282.26 486.562C281.351 486.475 280.95 487.296 281.089 488.029C276.564 487.348 272.022 486.772 267.426 486.405C266.081 486.301 266.081 488.134 267.129 488.57C268.195 489.006 269.261 489.391 270.344 489.792C266.762 489.268 263.198 488.727 259.599 488.238C258.411 488.081 257.992 489.565 259.11 490.019C261.678 491.084 264.264 492.027 266.867 492.899C261.87 492.131 256.873 491.346 251.876 490.578C251.038 490.455 250.653 491.73 251.51 491.887C260.368 493.353 269.243 494.732 278.084 496.286C267.007 496.426 255.563 493.912 245.15 490.647C249.623 489.827 254.043 488.605 258.359 487.365C269.069 484.293 279.762 481.116 290.472 477.991C299.208 475.442 309.411 473.348 318.654 469.734C316.68 474.168 314.932 478.532 311.403 482.495L311.421 482.46ZM325.695 460.377C313.01 467.936 296.727 470.659 282.679 474.762C268.824 478.794 254.445 484.52 240.013 486.109C239.209 486.196 238.441 486.248 237.672 486.283C237.777 485.812 237.584 485.288 236.956 485.096C232.64 483.752 228.342 482.39 224.026 481.098C223.799 481.029 223.607 481.098 223.467 481.186C222.506 480.802 221.563 480.365 220.637 479.894C227.328 480.435 233.968 481.238 240.59 482.355C242.075 482.6 242.721 480.505 241.219 480.051C240.694 479.894 240.188 479.754 239.664 479.615C240.397 479.213 240.537 477.956 239.506 477.747C234.614 476.734 229.81 475.407 225.11 473.801C227.329 474.273 229.565 474.762 231.801 475.198C233.077 475.442 233.531 473.732 232.325 473.278C228.761 471.934 225.197 470.572 221.633 469.21C226.315 469.978 230.98 470.799 235.61 471.776C236.886 472.038 237.322 470.327 236.134 469.856C235.331 469.524 234.509 469.228 233.688 468.966C233.286 468.826 232.937 469.036 232.727 469.35C230.805 469.053 228.901 468.739 226.979 468.425C233.479 467.849 239.891 465.911 245.988 463.746C257.083 459.818 268.055 455.489 279.08 451.352C290.192 447.18 301.339 443.06 312.434 438.835C319.196 436.269 326.604 433.406 330.937 427.331C346.382 435.047 336.825 453.743 325.678 460.394L325.695 460.377ZM319.667 429.967C312.801 433.807 304.764 436.024 297.426 438.765C289.179 441.838 280.95 444.928 272.703 448C258.096 453.464 241.795 462.123 225.878 463.1C226.175 462.664 226.071 461.983 225.407 461.756C219.781 459.853 214.207 457.758 208.721 455.506C211.097 455.995 213.473 456.536 215.815 457.147C218.261 457.985 220.759 458.719 223.327 459.347C224.463 459.626 224.9 457.985 223.799 457.619C221.51 456.833 219.204 456.152 216.898 455.506C213.316 454.267 209.839 452.818 206.432 451.177C210.521 452.294 214.592 453.394 218.68 454.511C219.554 454.756 220.13 453.464 219.309 453.028C214.749 450.601 210.224 448.14 205.698 445.661C208.896 447.057 212.163 448.297 215.535 449.414C216.583 449.763 217.3 448.122 216.286 447.616C212.705 445.8 209.035 444.247 205.279 442.955C203.514 442.1 201.767 441.192 200.037 440.267C200.998 440.424 201.959 440.598 202.92 440.773C204.668 441.297 206.415 441.715 208.179 442.012C209.944 442.553 212.495 443.322 214.347 443.706C213.98 444.753 214.452 445.713 215.727 446.534C216.042 446.743 216.531 446.743 216.845 446.534C218.453 445.521 218.942 443.985 217.789 442.641C235.103 442.187 252.785 433.668 268.195 427.732C279.622 423.316 291.048 418.69 301.951 413.069C309.009 409.42 316.138 405.056 321.257 398.859C332.719 406.4 331.898 423.141 319.667 429.984V429.967ZM311.49 367.907C311.578 367.331 311.648 366.755 311.7 366.179C318.881 367.855 322.55 374.838 322.585 381.995C322.62 389.432 317.763 395.734 312.277 400.273C298.893 411.34 280.373 417.311 264.386 423.368C248.697 429.321 231.504 437.7 214.364 437.107C204.965 436.775 194.778 431.922 189.275 424.468C190.148 424.922 191.022 425.358 191.913 425.795C191.319 425.987 191.022 426.825 191.721 427.209C199.374 431.363 207.201 433.965 215.657 435.937C217.038 436.251 217.492 434.366 216.234 433.86C215.762 433.668 215.308 433.476 214.836 433.284C215.116 432.743 215.081 432.009 214.434 431.73C209.839 429.688 205.262 427.645 200.701 425.55C204.79 426.929 208.861 428.431 212.827 430.141C214.295 430.77 215.605 428.71 214.12 427.942C209.542 425.533 204.912 423.194 200.282 420.872C204.248 422.251 208.197 423.613 212.145 425.027C213.648 425.568 214.26 423.211 212.792 422.652C204.982 419.632 197.469 415.897 190.376 411.445C197.522 413.383 204.563 415.635 211.516 418.271C212.652 418.707 213.473 417.014 212.652 416.298C213.561 416.036 213.823 414.605 212.932 413.976C211.831 413.191 210.713 412.44 209.612 411.672C211.342 411.916 213.054 412.266 214.784 412.754C216.426 413.226 217.125 410.677 215.483 410.206C215.221 410.136 214.976 410.083 214.731 410.014C231.557 408.914 248.609 404.584 263.862 399.138C274.52 395.332 284.951 390.654 294.77 385.015C301.287 381.262 307.629 376.95 309.935 369.967C310.704 369.705 311.316 369.059 311.49 367.96V367.907ZM201.226 410.118C202.012 410.153 202.781 410.206 203.567 410.223C203.637 410.572 203.811 410.886 204.143 411.113C204.161 411.113 204.196 411.148 204.213 411.166C203.217 410.834 202.221 410.467 201.226 410.118ZM270.501 390.252C265.225 392.417 259.844 394.372 254.392 396.048C246.443 398.509 238.476 400.238 230.491 401.547C230.491 401.407 230.473 401.268 230.438 401.128C216.933 340.447 167.557 296.281 118.531 260.704C122.358 250.212 129.766 241.222 139.672 234.728C156.026 223.974 176.363 221.478 195.477 220.501C213.089 219.61 230.893 219.959 248.277 216.712C237.497 274.024 250.933 336.485 270.519 390.217L270.501 390.252ZM298.421 334.268C301.269 344.236 306.79 353.942 305.917 364.538C305.847 364.713 305.777 364.905 305.742 365.114C304.222 375.396 291.677 380.302 283.431 384.422C280.478 385.888 277.49 387.267 274.468 388.576C262.342 349.141 251.317 309.182 250.234 267.652C249.762 249.968 251.178 232.424 254.672 215.386C266.099 212.593 284.758 205.994 281.351 191.697C280.67 188.868 276.879 189.794 276.599 192.342C275.516 202.886 265.12 206.762 256.017 209.206C260.438 190.544 267.461 172.529 277.473 155.648C279.22 152.715 274.73 150.131 272.913 152.994C261.451 171.132 253.903 190.597 249.483 210.76C240.887 212.558 232.116 213.378 223.327 213.849C204.668 214.862 185.798 214.408 167.383 218.179C146.399 222.473 121.711 236.509 113.709 257.265C108.992 253.896 104.292 250.596 99.6442 247.367C96.6216 245.272 93.7737 250.195 96.7614 252.29C101.846 255.833 106.93 259.412 111.962 263.043C110.774 268.455 110.704 274.233 112.049 280.378C112.486 282.351 115.718 281.949 115.613 279.889C115.386 275.263 115.788 270.794 116.767 266.517C138.379 282.298 159.241 299.179 177.394 318.906C199.671 343.101 216.147 370.823 225.774 402.28C215.221 403.834 204.58 404.776 193.765 405.876C190.585 396.834 187.353 387.808 184.016 378.818C181.378 371.748 179.124 364.014 174.109 358.201C169.654 353.034 163.416 350.381 157.214 347.937C148.932 344.672 140.738 341.338 132.683 337.55C102.492 323.34 74.1528 304.451 51.5267 279.767C6.60662 230.73 -12.6474 151.86 28.0621 94.1818C38.4927 79.4132 52.1033 67.106 66.3079 56.0383C80.827 44.7436 96.1673 34.3043 112.556 25.8726C147.57 7.89193 188.034 3.23092 226.962 6.73977C299.679 13.2861 353.545 87.6704 359.014 156.765C362.159 196.567 350.4 236.701 325.433 267.949C315.037 280.954 302.335 293.89 297.88 310.404C295.731 318.347 296.15 326.377 298.387 334.25L298.421 334.268Z" fill="var(--fill-0, #3C3C3B)"/>
</svg>
