<svg preserveAspectRatio="none" width="100%" height="100%" overflow="visible" style="display: block;" viewBox="0 0 451.782 205.586" fill="none" xmlns="http://www.w3.org/2000/svg">
<g id="Vector">
<path d="M170.967 19.3261V0.010186H142.778C130.074 -0.366097 119.582 9.73083 119.582 22.3363V36.2588H153.522L170.967 19.3261Z" fill="var(--fill-0, black)"/>
<path d="M413.86 56.0137H258.188V45.2269H216.663V109.195H202.632C202.632 94.5827 196.691 81.2873 187.021 71.6921C177.35 62.0969 164.014 56.1391 149.288 56.0764H119.645L98.4086 77.4618V108.693H85.0093V87.1197L53.7234 56.0137H40.3873V161.31H0V205.586H57.01C72.495 205.523 85.0093 192.73 85.0093 177.365C85.0093 162 72.4318 149.457 56.8836 149.457H85.0093L98.4086 140.866V153.973H193.341L215.778 141.869C215.778 148.642 221.34 153.973 228.23 153.973L411.395 153.722C422.076 153.722 432.252 149.52 439.836 142.057C443.629 138.294 446.663 133.842 448.685 129.013C450.708 124.184 451.782 118.916 451.782 113.522V93.5793L413.86 56.0137ZM180.827 108.756H117.812V98.2828H180.827V108.756ZM389.779 108.756H261.096V98.2828H389.779V108.756Z" fill="var(--fill-0, black)"/>
</g>
</svg>
