<svg preserveAspectRatio="none" width="100%" height="100%" overflow="visible" style="display: block;" viewBox="0 0 93 42.651" fill="none" xmlns="http://www.w3.org/2000/svg">
<g id="Frame 110">
<g id="Vector">
<path d="M35.1938 4.00939V0.00211319H29.391C26.7759 -0.0759506 24.6161 2.01876 24.6161 4.6339V7.52226H31.6028L35.1938 4.00939Z" fill="var(--fill-0, black)"/>
<path d="M85.1936 11.6206H53.1484V9.38278H44.6005V22.6536H41.7121C41.7121 19.6222 40.4891 16.8639 38.4985 14.8733C36.5078 12.8826 33.7626 11.6466 30.7311 11.6336H24.6291L20.2576 16.0702V22.5495H17.4993V18.0739L11.059 11.6206H8.3138V33.4655H0V42.651H11.7356C14.9232 42.638 17.4993 39.9838 17.4993 36.7962C17.4993 33.6086 14.9102 31.0065 11.7096 31.0065H17.4993L20.2576 29.224V31.9432H39.7995L44.4183 29.4322C44.4183 30.8373 45.5632 31.9432 46.9814 31.9432L84.6862 31.8912C86.885 31.8912 88.9797 31.0195 90.541 29.4712C91.3216 28.6906 91.9462 27.7668 92.3625 26.765C92.7788 25.7632 93 24.6703 93 23.5514V19.414L85.1936 11.6206ZM37.2234 22.5626H24.2518V20.3898H37.2234V22.5626ZM80.2366 22.5626H53.7469V20.3898H80.2366V22.5626Z" fill="var(--fill-0, black)"/>
</g>
</g>
</svg>
